<?xml version="1.0" standalone="no"?>
<!DOCTYPE svg PUBLIC "-//W3C//DTD SVG 1.1//EN" "http://www.w3.org/Graphics/SVG/1.1/DTD/svg11.dtd">
<svg width="100%" height="100%" viewBox="0 0 35 35" version="1.1" xmlns="http://www.w3.org/2000/svg" xmlns:xlink="http://www.w3.org/1999/xlink" xml:space="preserve" style="fill-rule:evenodd;clip-rule:evenodd;stroke-linejoin:round;stroke-miterlimit:1.41421;">
    <g transform="matrix(1,0,0,1,-390,-92)">
        <g transform="matrix(0.998217,-4.36594e-19,-4.36594e-19,1,-431.498,-1241.76)">
            <path d="M858.027,1367.21L858.027,1345.62C858.027,1345.27 857.855,1345.1 857.512,1345.1C857.168,1345.1 856.996,1345.27 856.996,1345.62L856.996,1367.21C856.996,1367.56 856.824,1367.73 856.48,1367.73L824.512,1367.73C824.168,1367.73 823.996,1367.56 823.996,1367.21L823.996,1345.62C823.996,1345.27 823.824,1345.1 823.48,1345.1C823.137,1345.1 822.965,1345.27 822.965,1345.62L822.965,1367.21C822.965,1367.64 823.115,1368.01 823.416,1368.31C823.717,1368.61 824.082,1368.76 824.512,1368.76L856.48,1368.76C856.91,1368.76 857.275,1368.61 857.576,1368.31C857.877,1368.01 858.027,1367.64 858.027,1367.21ZM852.355,1336.76L856.738,1336.76C856.91,1336.76 856.996,1336.91 856.996,1337.26L856.996,1341.76L823.996,1341.76L823.996,1337.26C823.996,1336.91 824.168,1336.76 824.512,1336.76L828.637,1336.76C828.98,1336.76 829.152,1336.6 829.152,1336.26C829.152,1335.91 828.98,1335.76 828.637,1335.76L824.512,1335.76C824.082,1335.76 823.717,1335.89 823.416,1336.19C823.115,1336.5 822.965,1336.83 822.965,1337.26L822.965,1342.26C822.965,1342.6 823.137,1342.76 823.48,1342.76L857.512,1342.76C857.855,1342.76 858.027,1342.6 858.027,1342.26L858.027,1337.26C858.027,1336.23 857.598,1335.76 856.738,1335.76L852.355,1335.76C852.012,1335.76 851.84,1335.91 851.84,1336.26C851.84,1336.6 852.012,1336.76 852.355,1336.76ZM846.168,1336.76C846.512,1336.76 846.684,1336.6 846.684,1336.26C846.684,1335.91 846.512,1335.76 846.168,1335.76L834.824,1335.76C834.48,1335.76 834.309,1335.91 834.309,1336.26C834.309,1336.6 834.48,1336.76 834.824,1336.76L846.168,1336.76ZM832.01,1338.26L832.01,1334.26C832.01,1333.91 831.839,1333.76 831.495,1333.76C831.151,1333.76 830.979,1333.91 830.979,1334.26L830.979,1338.26C830.979,1338.6 831.151,1338.76 831.495,1338.76C831.839,1338.76 832.01,1338.6 832.01,1338.26ZM849.527,1338.76C849.871,1338.76 850.043,1338.6 850.043,1338.26L850.043,1334.26C850.043,1333.91 849.871,1333.76 849.527,1333.76C849.183,1333.76 849.011,1333.91 849.011,1334.26L849.011,1338.26C849.011,1338.6 849.183,1338.76 849.527,1338.76Z" style="fill:rgb(0,179,135);fill-rule:nonzero;"/>
        </g>
        <g transform="matrix(1.09294,9.14351e-17,9.14351e-17,0.719625,-36.4929,34.0394)">
            <path d="M416.76,107.223C416.76,107.07 416.678,106.945 416.577,106.945L395.899,106.945C395.798,106.945 395.716,107.07 395.716,107.223L395.716,108.057C395.716,108.211 395.798,108.335 395.899,108.335L416.577,108.335C416.678,108.335 416.76,108.211 416.76,108.057L416.76,107.223Z" style="fill:rgb(0,179,135);"/>
        </g>
        <g transform="matrix(1.09294,9.14351e-17,9.14351e-17,0.719625,-36.4929,40.0394)">
            <path d="M416.76,107.223C416.76,107.07 416.678,106.945 416.577,106.945L395.899,106.945C395.798,106.945 395.716,107.07 395.716,107.223L395.716,108.057C395.716,108.211 395.798,108.335 395.899,108.335L416.577,108.335C416.678,108.335 416.76,108.211 416.76,108.057L416.76,107.223Z" style="fill:rgb(0,179,135);"/>
        </g>
        <g transform="matrix(1.67532e-18,0.760304,-0.719625,7.80629e-17,476.961,-194.865)">
            <path d="M416.76,107.223C416.76,107.07 416.643,106.945 416.497,106.945L395.979,106.945C395.834,106.945 395.716,107.07 395.716,107.223L395.716,108.057C395.716,108.211 395.834,108.335 395.979,108.335L416.497,108.335C416.643,108.335 416.76,108.211 416.76,108.057L416.76,107.223Z" style="fill:rgb(0,179,135);"/>
        </g>
        <g transform="matrix(-3.05661e-18,0.760304,-0.719625,8.22782e-17,484.961,-194.865)">
            <path d="M416.76,107.223C416.76,107.07 416.643,106.945 416.497,106.945L395.979,106.945C395.834,106.945 395.716,107.07 395.716,107.223L395.716,108.057C395.716,108.211 395.834,108.335 395.979,108.335L416.497,108.335C416.643,108.335 416.76,108.211 416.76,108.057L416.76,107.223Z" style="fill:rgb(0,179,135);"/>
        </g>
        <g transform="matrix(1.67532e-18,0.760304,-0.719625,7.80629e-17,491.961,-194.865)">
            <path d="M416.76,107.223C416.76,107.07 416.643,106.945 416.497,106.945L395.979,106.945C395.834,106.945 395.716,107.07 395.716,107.223L395.716,108.057C395.716,108.211 395.834,108.335 395.979,108.335L416.497,108.335C416.643,108.335 416.76,108.211 416.76,108.057L416.76,107.223Z" style="fill:rgb(0,179,135);"/>
        </g>
    </g>
</svg>
