<?xml version="1.0" standalone="no"?>
<!DOCTYPE svg PUBLIC "-//W3C//DTD SVG 1.1//EN" "http://www.w3.org/Graphics/SVG/1.1/DTD/svg11.dtd">
<svg width="100%" height="100%" viewBox="0 0 42 34" version="1.1" xmlns="http://www.w3.org/2000/svg" xmlns:xlink="http://www.w3.org/1999/xlink" xml:space="preserve" style="fill-rule:evenodd;clip-rule:evenodd;stroke-linejoin:round;stroke-miterlimit:1.41421;">
    <g transform="matrix(0.941176,-1.50542e-17,-1.50146e-17,1,-765.555,-1332.82)">
        <path d="M851.254,1347.69C850.944,1347.61 850.734,1347.73 850.623,1348.06C850.512,1348.39 850.634,1348.62 850.988,1348.76C853.025,1349.42 854.53,1350.26 855.504,1351.28C856.478,1352.3 856.965,1353.58 856.965,1355.13C856.965,1357.26 855.615,1359.23 852.914,1361.04C852.781,1361.18 852.715,1361.33 852.715,1361.51L852.715,1365.56C851.431,1365.07 850.324,1364.32 849.395,1363.3C849.262,1363.12 849.096,1363.06 848.896,1363.1C848.697,1363.15 848.398,1363.23 848,1363.37C847.247,1363.54 846.694,1363.63 846.34,1363.63C843.772,1363.63 841.581,1362.97 839.766,1361.64C839.456,1361.42 839.201,1361.45 839.002,1361.74C838.803,1362.03 838.836,1362.26 839.102,1362.44C841.138,1363.94 843.551,1364.69 846.34,1364.69C846.783,1364.69 847.424,1364.59 848.266,1364.36C848.487,1364.32 848.664,1364.28 848.797,1364.23C850.169,1365.65 851.608,1366.51 853.113,1366.82C853.158,1366.82 853.202,1366.82 853.246,1366.82C853.379,1366.82 853.49,1366.78 853.578,1366.69C853.711,1366.6 853.777,1366.47 853.777,1366.29L853.777,1361.77C856.611,1359.78 858.027,1357.57 858.027,1355.13C858.027,1351.63 855.77,1349.16 851.254,1347.69ZM848.465,1347.16C848.465,1343.09 846.805,1339.68 843.484,1336.94C840.164,1334.19 836.047,1332.82 831.133,1332.82C826.174,1332.82 821.98,1334.2 818.549,1336.97C815.118,1339.74 813.402,1343.13 813.402,1347.16C813.402,1351.06 815.527,1354.51 819.777,1357.52L819.777,1364.56C819.777,1364.78 819.866,1364.94 820.043,1365.03C820.132,1365.07 820.22,1365.09 820.309,1365.09C820.397,1365.09 820.464,1365.09 820.508,1365.09C822.987,1363.99 825.289,1362.28 827.414,1359.98C829.185,1360.29 830.602,1360.44 831.664,1360.44C836.667,1360.44 840.717,1359.23 843.816,1356.79C846.915,1354.36 848.465,1351.15 848.465,1347.16ZM831.664,1359.38C830.602,1359.38 829.163,1359.21 827.348,1358.85C827.126,1358.81 826.949,1358.87 826.816,1359.05C825.178,1360.91 823.186,1362.46 820.84,1363.7L820.84,1357.26C820.84,1357.08 820.773,1356.93 820.641,1356.79C816.523,1354 814.465,1350.79 814.465,1347.16C814.465,1343.44 816.07,1340.3 819.279,1337.73C822.489,1335.17 826.44,1333.88 831.133,1333.88C835.781,1333.88 839.655,1335.14 842.754,1337.67C845.853,1340.19 847.402,1343.36 847.402,1347.16C847.402,1350.84 845.952,1353.79 843.053,1356.03C840.153,1358.27 836.357,1359.38 831.664,1359.38ZM830.934,1345.04C830.358,1345.04 829.86,1345.25 829.439,1345.67C829.019,1346.09 828.809,1346.59 828.809,1347.16C828.809,1347.74 829.019,1348.24 829.439,1348.66C829.86,1349.08 830.358,1349.29 830.934,1349.29C831.509,1349.29 832.007,1349.08 832.428,1348.66C832.848,1348.24 833.059,1347.74 833.059,1347.16C833.059,1346.59 832.848,1346.09 832.428,1345.67C832.007,1345.25 831.509,1345.04 830.934,1345.04ZM830.934,1348.23C830.624,1348.23 830.369,1348.13 830.17,1347.93C829.971,1347.73 829.871,1347.47 829.871,1347.16C829.871,1346.85 829.971,1346.6 830.17,1346.4C830.369,1346.2 830.624,1346.1 830.934,1346.1C831.243,1346.1 831.498,1346.2 831.697,1346.4C831.896,1346.6 831.996,1346.85 831.996,1347.16C831.996,1347.47 831.896,1347.73 831.697,1347.93C831.498,1348.13 831.243,1348.23 830.934,1348.23ZM838.371,1345.04C837.796,1345.04 837.298,1345.25 836.877,1345.67C836.456,1346.09 836.246,1346.59 836.246,1347.16C836.246,1347.74 836.456,1348.24 836.877,1348.66C837.298,1349.08 837.796,1349.29 838.371,1349.29C838.947,1349.29 839.445,1349.08 839.865,1348.66C840.286,1348.24 840.496,1347.74 840.496,1347.16C840.496,1346.59 840.286,1346.09 839.865,1345.67C839.445,1345.25 838.947,1345.04 838.371,1345.04ZM838.371,1348.23C838.061,1348.23 837.807,1348.13 837.607,1347.93C837.408,1347.73 837.309,1347.47 837.309,1347.16C837.309,1346.85 837.408,1346.6 837.607,1346.4C837.807,1346.2 838.061,1346.1 838.371,1346.1C838.681,1346.1 838.936,1346.2 839.135,1346.4C839.334,1346.6 839.434,1346.85 839.434,1347.16C839.434,1347.47 839.334,1347.73 839.135,1347.93C838.936,1348.13 838.681,1348.23 838.371,1348.23ZM823.496,1345.17C822.921,1345.17 822.423,1345.37 822.002,1345.77C821.581,1346.17 821.371,1346.67 821.371,1347.26C821.371,1347.86 821.581,1348.37 822.002,1348.79C822.423,1349.21 822.921,1349.42 823.496,1349.42C824.072,1349.42 824.57,1349.21 824.99,1348.79C825.411,1348.37 825.621,1347.86 825.621,1347.26C825.621,1346.67 825.411,1346.17 824.99,1345.77C824.57,1345.37 824.072,1345.17 823.496,1345.17ZM823.496,1348.36C823.186,1348.36 822.932,1348.25 822.732,1348.03C822.533,1347.81 822.434,1347.55 822.434,1347.26C822.434,1346.98 822.533,1346.73 822.732,1346.53C822.932,1346.33 823.186,1346.23 823.496,1346.23C823.806,1346.23 824.061,1346.33 824.26,1346.53C824.459,1346.73 824.559,1346.98 824.559,1347.26C824.559,1347.55 824.459,1347.81 824.26,1348.03C824.061,1348.25 823.806,1348.36 823.496,1348.36Z" style="fill:rgb(30,140,229);fill-rule:nonzero;"/>
    </g>
</svg>
