<?xml version="1.0" standalone="no"?>
<!DOCTYPE svg PUBLIC "-//W3C//DTD SVG 1.1//EN" "http://www.w3.org/Graphics/SVG/1.1/DTD/svg11.dtd">
<svg width="100%" height="100%" viewBox="0 0 35 36" version="1.1" xmlns="http://www.w3.org/2000/svg" xmlns:xlink="http://www.w3.org/1999/xlink" xml:space="preserve" style="fill-rule:evenodd;clip-rule:evenodd;stroke-linejoin:round;stroke-miterlimit:1.41421;">
    <g transform="matrix(1,0,0,1,-188,-140)">
        <g transform="matrix(0.878788,-5.62287e-18,-4.26563e-18,0.611111,-576.697,-618.389)">
            <path d="M910,1242.8C910,1241.81 909.439,1241 908.748,1241L878.252,1241C877.561,1241 877,1241.81 877,1242.8L877,1275.2C877,1276.19 877.561,1277 878.252,1277L908.748,1277C909.439,1277 910,1276.19 910,1275.2L910,1242.8Z" style="fill:white;"/>
            <path d="M878.252,1277L878.187,1277L878.124,1276.99L878.061,1276.98L878,1276.96L877.939,1276.94L877.88,1276.92L877.822,1276.89L877.765,1276.86L877.709,1276.82L877.655,1276.78L877.603,1276.74L877.552,1276.69L877.503,1276.64L877.456,1276.59L877.41,1276.53L877.367,1276.47L877.325,1276.41L877.286,1276.35L877.249,1276.28L877.214,1276.21L877.181,1276.13L877.151,1276.06L877.124,1275.98L877.098,1275.9L877.076,1275.82L877.056,1275.74L877.039,1275.65L877.025,1275.56L877.014,1275.47L877.006,1275.38L877.002,1275.29L877,1275.2L877,1242.8L877.002,1242.71L877.006,1242.62L877.014,1242.53L877.025,1242.44L877.039,1242.35L877.056,1242.27L877.076,1242.18L877.098,1242.1L877.124,1242.02L877.151,1241.94L877.181,1241.87L877.214,1241.79L877.249,1241.72L877.286,1241.65L877.325,1241.59L877.367,1241.53L877.41,1241.47L877.456,1241.41L877.503,1241.36L877.552,1241.31L877.603,1241.26L877.655,1241.22L877.709,1241.18L877.765,1241.14L877.822,1241.11L877.88,1241.08L877.939,1241.06L878,1241.04L878.061,1241.02L878.124,1241.01L878.187,1241L908.813,1241L908.939,1241.02L909.061,1241.06L909.12,1241.08L909.178,1241.11L909.235,1241.14L909.291,1241.18L909.345,1241.22L909.397,1241.26L909.448,1241.31L909.497,1241.36L909.544,1241.41L909.59,1241.47L909.633,1241.53L909.675,1241.59L909.714,1241.65L909.751,1241.72L909.786,1241.79L909.819,1241.87L909.849,1241.94L909.876,1242.02L909.902,1242.1L909.924,1242.18L909.944,1242.27L909.961,1242.35L909.975,1242.44L909.986,1242.53L909.994,1242.62L909.998,1242.71L910,1242.8L910,1275.2L909.998,1275.29L909.994,1275.38L909.986,1275.47L909.975,1275.56L909.961,1275.65L909.944,1275.74L909.924,1275.82L909.902,1275.9L909.876,1275.98L909.849,1276.06L909.819,1276.13L909.786,1276.21L909.751,1276.28L909.714,1276.35L909.675,1276.41L909.633,1276.47L909.59,1276.53L909.544,1276.59L909.497,1276.64L909.448,1276.69L909.397,1276.74L909.345,1276.78L909.291,1276.82L909.235,1276.86L909.178,1276.89L909.12,1276.92L909.061,1276.94L909,1276.96L908.939,1276.98L908.876,1276.99L908.813,1277L908.748,1277L878.252,1277ZM878.266,1275.36L908.782,1275.36L908.787,1275.35L908.796,1275.35L908.801,1275.34L908.811,1275.34L908.815,1275.33L908.82,1275.33L908.824,1275.32L908.828,1275.32L908.832,1275.31L908.836,1275.3L908.84,1275.3L908.843,1275.29L908.846,1275.28L908.849,1275.28L908.851,1275.27L908.853,1275.26L908.855,1275.26L908.857,1275.25L908.858,1275.24L908.859,1275.23L908.86,1275.23L908.861,1275.22L908.862,1275.21L908.862,1275.18L908.862,1242.82L908.862,1242.79L908.861,1242.78L908.86,1242.77L908.859,1242.77L908.858,1242.76L908.857,1242.75L908.855,1242.74L908.853,1242.74L908.851,1242.73L908.849,1242.72L908.846,1242.72L908.843,1242.71L908.84,1242.7L908.836,1242.7L908.832,1242.69L908.828,1242.68L908.824,1242.68L908.82,1242.67L908.815,1242.67L908.811,1242.66L908.806,1242.66L908.801,1242.66L908.796,1242.65L908.792,1242.65L908.787,1242.65L908.782,1242.64L908.777,1242.64L908.772,1242.64L908.767,1242.64L908.761,1242.64L908.755,1242.64L908.734,1242.64L878.266,1242.64L878.245,1242.64L878.239,1242.64L878.233,1242.64L878.228,1242.64L878.223,1242.64L878.218,1242.64L878.213,1242.65L878.208,1242.65L878.204,1242.65L878.199,1242.66L878.194,1242.66L878.189,1242.66L878.185,1242.67L878.18,1242.67L878.176,1242.68L878.172,1242.68L878.168,1242.69L878.164,1242.7L878.16,1242.7L878.157,1242.71L878.154,1242.72L878.151,1242.72L878.149,1242.73L878.147,1242.74L878.145,1242.75L878.143,1242.75L878.142,1242.76L878.141,1242.77L878.14,1242.77L878.139,1242.78L878.138,1242.79L878.138,1275.21L878.14,1275.23L878.141,1275.23L878.143,1275.25L878.147,1275.26L878.151,1275.28L878.154,1275.28L878.16,1275.3L878.164,1275.3L878.172,1275.32L878.176,1275.32L878.18,1275.33L878.185,1275.33L878.189,1275.34L878.199,1275.34L878.208,1275.35L878.218,1275.36L878.266,1275.36Z" style="fill:rgb(255,187,64);"/>
        </g>
        <g transform="matrix(0.909091,1.79923e-18,7.48625e-19,0.611111,-609.273,-610.389)">
            <path d="M910,1242.8C910,1241.81 909.458,1241 908.79,1241L878.21,1241C877.542,1241 877,1241.81 877,1242.8L877,1275.2C877,1276.19 877.542,1277 878.21,1277L908.79,1277C909.458,1277 910,1276.19 910,1275.2L910,1242.8Z" style="fill:white;"/>
            <path d="M878.21,1277L878.148,1277L878.086,1276.99L878.026,1276.98L877.966,1276.96L877.908,1276.94L877.85,1276.92L877.794,1276.89L877.739,1276.86L877.686,1276.82L877.633,1276.78L877.583,1276.74L877.534,1276.69L877.486,1276.64L877.441,1276.59L877.397,1276.53L877.355,1276.47L877.314,1276.41L877.276,1276.35L877.241,1276.28L877.207,1276.21L877.175,1276.13L877.146,1276.06L877.119,1275.98L877.095,1275.9L877.073,1275.82L877.054,1275.74L877.038,1275.65L877.025,1275.56L877.014,1275.47L877.006,1275.38L877.002,1275.29L877,1275.2L877,1242.8L877.002,1242.71L877.006,1242.62L877.014,1242.53L877.025,1242.44L877.038,1242.35L877.054,1242.27L877.073,1242.18L877.095,1242.1L877.119,1242.02L877.146,1241.94L877.175,1241.87L877.207,1241.79L877.241,1241.72L877.276,1241.65L877.314,1241.59L877.355,1241.53L877.397,1241.47L877.441,1241.41L877.486,1241.36L877.534,1241.31L877.583,1241.26L877.633,1241.22L877.686,1241.18L877.739,1241.14L877.794,1241.11L877.85,1241.08L877.908,1241.06L877.966,1241.04L878.026,1241.02L878.086,1241.01L878.148,1241L908.852,1241L908.914,1241.01L908.974,1241.02L909.034,1241.04L909.15,1241.08L909.206,1241.11L909.261,1241.14L909.367,1241.22L909.417,1241.26L909.466,1241.31L909.514,1241.36L909.559,1241.41L909.603,1241.47L909.645,1241.53L909.686,1241.59L909.724,1241.65L909.759,1241.72L909.793,1241.79L909.825,1241.87L909.854,1241.94L909.881,1242.02L909.905,1242.1L909.927,1242.18L909.946,1242.27L909.962,1242.35L909.975,1242.44L909.986,1242.53L909.994,1242.62L909.998,1242.71L910,1242.8L910,1275.2L909.998,1275.29L909.994,1275.38L909.986,1275.47L909.975,1275.56L909.962,1275.65L909.946,1275.74L909.927,1275.82L909.905,1275.9L909.881,1275.98L909.854,1276.06L909.825,1276.13L909.793,1276.21L909.759,1276.28L909.724,1276.35L909.686,1276.41L909.645,1276.47L909.603,1276.53L909.559,1276.59L909.514,1276.64L909.466,1276.69L909.417,1276.74L909.367,1276.78L909.314,1276.82L909.261,1276.86L909.206,1276.89L909.15,1276.92L909.092,1276.94L909.034,1276.96L908.974,1276.98L908.914,1276.99L908.852,1277L908.79,1277L878.21,1277ZM878.224,1275.36L908.823,1275.36L908.827,1275.35L908.837,1275.35L908.841,1275.34L908.85,1275.34L908.855,1275.33L908.859,1275.33L908.863,1275.32L908.867,1275.32L908.871,1275.31L908.875,1275.3L908.878,1275.3L908.882,1275.29L908.884,1275.28L908.887,1275.28L908.89,1275.27L908.892,1275.26L908.893,1275.26L908.895,1275.25L908.896,1275.24L908.897,1275.23L908.898,1275.23L908.899,1275.22L908.899,1275.21L908.9,1275.18L908.9,1242.82L908.899,1242.79L908.899,1242.78L908.898,1242.77L908.897,1242.77L908.896,1242.76L908.895,1242.75L908.893,1242.74L908.892,1242.74L908.89,1242.73L908.887,1242.72L908.884,1242.72L908.882,1242.71L908.878,1242.7L908.875,1242.7L908.871,1242.69L908.867,1242.68L908.863,1242.68L908.859,1242.67L908.855,1242.67L908.85,1242.66L908.846,1242.66L908.841,1242.66L908.837,1242.65L908.832,1242.65L908.827,1242.65L908.823,1242.64L908.818,1242.64L908.813,1242.64L908.808,1242.64L908.802,1242.64L908.797,1242.64L908.776,1242.64L878.224,1242.64L878.203,1242.64L878.198,1242.64L878.192,1242.64L878.187,1242.64L878.182,1242.64L878.177,1242.64L878.173,1242.65L878.168,1242.65L878.163,1242.65L878.159,1242.66L878.154,1242.66L878.15,1242.66L878.145,1242.67L878.141,1242.67L878.137,1242.68L878.133,1242.68L878.129,1242.69L878.125,1242.7L878.122,1242.7L878.118,1242.71L878.116,1242.72L878.113,1242.72L878.111,1242.73L878.108,1242.74L878.107,1242.74L878.105,1242.75L878.104,1242.76L878.103,1242.77L878.102,1242.77L878.101,1242.78L878.101,1242.79L878.1,1242.82L878.1,1275.18L878.101,1275.21L878.101,1275.22L878.102,1275.23L878.104,1275.24L878.107,1275.26L878.111,1275.27L878.116,1275.28L878.118,1275.29L878.122,1275.3L878.125,1275.3L878.133,1275.32L878.137,1275.32L878.141,1275.33L878.145,1275.33L878.15,1275.34L878.154,1275.34L878.163,1275.35L878.173,1275.35L878.182,1275.36L878.224,1275.36Z" style="fill:rgb(255,187,64);"/>
        </g>
        <g transform="matrix(1.28571,-7.85564e-17,-9.78016e-17,2,-1573.29,-2914)">
            <path d="M1380,1542L1387,1545L1387,1542L1385,1542L1380,1542Z" style="fill:white;"/>
            <path d="M1387,1545L1380,1542L1387,1542L1387,1545ZM1386.22,1544.07L1386.22,1542.5L1382.57,1542.5L1386.22,1544.07Z" style="fill:rgb(255,187,64);"/>
        </g>
        <g transform="matrix(1.36859,3.99576e-14,0.00225985,1.25103,-1746.47,-1758.57)">
            <path d="M1419.53,1539.94L1426.29,1544.93L1426.24,1539.97L1419.53,1539.94Z" style="fill:white;"/>
        </g>
        <g transform="matrix(1.3125,1.99005e-16,1.99005e-16,0.5,-1659.94,-609)">
            <rect x="1411" y="1530" width="16" height="2" style="fill:rgb(255,187,64);"/>
        </g>
        <g transform="matrix(0.8125,7.65404e-17,7.65404e-17,0.5,-948.437,-604)">
            <rect x="1411" y="1530" width="16" height="2" style="fill:rgb(255,187,64);"/>
        </g>
    </g>
</svg>
