<?xml version="1.0" standalone="no"?>
<!DOCTYPE svg PUBLIC "-//W3C//DTD SVG 1.1//EN" "http://www.w3.org/Graphics/SVG/1.1/DTD/svg11.dtd">
<svg width="100%" height="100%" viewBox="0 0 31 35" version="1.1" xmlns="http://www.w3.org/2000/svg" xmlns:xlink="http://www.w3.org/1999/xlink" xml:space="preserve" style="fill-rule:evenodd;clip-rule:evenodd;stroke-linejoin:round;stroke-miterlimit:1.41421;">
    <g transform="matrix(1,0,0,1,0.0003274,0.0092566)">
        <g transform="matrix(1.16402,9.16047e-17,1.28837e-16,1.11111,-950.738,-1478.83)">
            <path d="M818.458,1362.44L841.715,1362.44C842.184,1362.44 842.582,1362.28 842.91,1361.95C843.238,1361.62 843.402,1361.23 843.402,1360.76L843.402,1339.38C843.402,1339.38 843.402,1339.36 843.402,1339.31C843.402,1339.27 843.402,1339.24 843.402,1339.24C843.355,1339.15 843.309,1339.06 843.262,1338.96L835.387,1331.09C835.293,1331.04 835.199,1330.99 835.105,1330.94C835.105,1330.94 835.082,1330.94 835.035,1330.94C834.988,1330.94 834.965,1330.94 834.965,1330.94L818.458,1330.94C817.989,1330.94 817.591,1331.11 817.263,1331.44C816.935,1331.77 816.771,1332.16 816.771,1332.63L816.771,1360.76C816.771,1361.23 816.935,1361.62 817.263,1361.95C817.591,1362.28 817.989,1362.44 818.458,1362.44ZM835.699,1332.75L841.744,1339.05L836.241,1339.05C835.866,1339.05 835.654,1338.63 835.654,1338.26L835.699,1332.75ZM817.609,1332.63C817.609,1332.26 818.136,1331.87 818.511,1331.87L834.823,1331.86L834.819,1338.19C834.819,1338.66 834.834,1339.18 835.162,1339.51C835.491,1339.84 835.621,1339.94 836.09,1339.94L842.559,1339.92L842.559,1360.74C842.559,1361.11 842.09,1361.55 841.715,1361.55L818.458,1361.55C818.083,1361.55 817.619,1361.13 817.619,1360.76L817.609,1332.63Z" style="fill:rgb(36,118,242);fill-rule:nonzero;"/>
        </g>
        <g transform="matrix(1.31653,-1.01371e-16,-1.01371e-16,1.73041,-1.127,-1.837)">
            <rect x="8.018" y="7.996" width="5.534" height="0.578" style="fill:rgb(36,118,242);"/>
        </g>
        <g transform="matrix(2.89121,2.40055e-16,1.22855e-16,1.73041,-16.18,3.163)">
            <rect x="8.018" y="7.996" width="5.534" height="0.578" style="fill:rgb(36,118,242);"/>
        </g>
        <g transform="matrix(2.89121,-3.7957e-16,-8.45897e-16,1.73041,-16.18,8.163)">
            <rect x="8.018" y="7.996" width="5.534" height="0.578" style="fill:rgb(36,118,242);"/>
        </g>
        <g transform="matrix(2.89121,-3.7957e-16,-8.45897e-16,1.73041,-16.18,13.163)">
            <rect x="8.018" y="7.996" width="5.534" height="0.578" style="fill:rgb(36,118,242);"/>
        </g>
    </g>
</svg>
