<?xml version="1.0" standalone="no"?>
<!DOCTYPE svg PUBLIC "-//W3C//DTD SVG 1.1//EN" "http://www.w3.org/Graphics/SVG/1.1/DTD/svg11.dtd">
<svg width="100%" height="100%" viewBox="0 0 35 35" version="1.1" xmlns="http://www.w3.org/2000/svg" xmlns:xlink="http://www.w3.org/1999/xlink" xml:space="preserve" style="fill-rule:evenodd;clip-rule:evenodd;stroke-linejoin:round;stroke-miterlimit:1.41421;">
    <g transform="matrix(1,0,0,1,-349.991,-1209)">
        <g transform="matrix(0.5,-2.20904e-17,-2.4434e-17,0.589127,-250.509,466.109)">
            <rect x="1201" y="1261" width="2" height="57" style="fill:rgb(77,208,122);"/>
        </g>
        <g transform="matrix(6.50552e-17,0.45,-0.590602,-4.75806e-18,1128.43,701.708)">
            <rect x="1201" y="1261" width="2" height="57" style="fill:rgb(77,208,122);"/>
        </g>
        <g transform="matrix(2.59413e-17,0.5,-0.45614,2.72624e-17,959.197,616.518)">
            <rect x="1201" y="1261" width="2" height="57" style="fill:rgb(77,208,122);"/>
        </g>
        <g transform="matrix(5.89564e-18,0.5,-0.369126,4.15819e-17,844.518,622.512)">
            <rect x="1201" y="1261" width="2" height="57" style="fill:rgb(77,208,122);"/>
        </g>
        <g transform="matrix(-5.03644e-17,0.5,-0.298246,3.14286e-16,751.111,629.511)">
            <rect x="1201" y="1261" width="2" height="57" style="fill:rgb(77,208,122);"/>
        </g>
        <g transform="matrix(-5.48982e-17,0.5,-0.263158,2.7689e-16,704.867,635.514)">
            <rect x="1201" y="1261" width="2" height="57" style="fill:rgb(77,208,122);"/>
        </g>
    </g>
</svg>
