<?xml version="1.0" standalone="no"?>
<!DOCTYPE svg PUBLIC "-//W3C//DTD SVG 1.1//EN" "http://www.w3.org/Graphics/SVG/1.1/DTD/svg11.dtd">
<svg width="100%" height="100%" viewBox="0 0 31 35" version="1.1" xmlns="http://www.w3.org/2000/svg" xmlns:xlink="http://www.w3.org/1999/xlink" xml:space="preserve" style="fill-rule:evenodd;clip-rule:evenodd;stroke-linejoin:round;stroke-miterlimit:1.41421;">
    <g transform="matrix(1,0,0,1,-58,-16)">
        <g transform="matrix(0.377886,-9.67051e-19,-1.03964e-18,0.377886,-214.06,-379.646)">
            <circle cx="774.201" cy="1064.2" r="17.201" style="fill:white;"/>
            <path d="M774.201,1081.4L773.979,1081.4L773.757,1081.4L773.536,1081.39L773.316,1081.38L773.097,1081.37L772.878,1081.35L772.66,1081.33L772.443,1081.31L772.227,1081.29L772.011,1081.26L771.797,1081.24L771.583,1081.2L771.37,1081.17L771.158,1081.13L770.947,1081.09L770.736,1081.05L770.527,1081.01L770.318,1080.96L770.111,1080.91L769.904,1080.86L769.699,1080.81L769.494,1080.75L769.291,1080.69L769.088,1080.63L768.887,1080.56L768.687,1080.5L768.487,1080.43L768.289,1080.36L768.092,1080.28L767.896,1080.21L767.702,1080.13L767.508,1080.05L767.316,1079.97L767.125,1079.88L766.935,1079.79L766.746,1079.7L766.559,1079.61L766.373,1079.52L766.188,1079.42L766.005,1079.33L765.823,1079.22L765.642,1079.12L765.462,1079.02L765.284,1078.91L765.108,1078.8L764.933,1078.69L764.759,1078.58L764.587,1078.46L764.416,1078.35L764.246,1078.23L764.078,1078.11L763.912,1077.98L763.747,1077.86L763.584,1077.73L763.422,1077.6L763.262,1077.47L763.104,1077.34L762.947,1077.2L762.792,1077.07L762.638,1076.93L762.486,1076.79L762.336,1076.65L762.187,1076.51L762.04,1076.36L761.895,1076.21L761.752,1076.07L761.61,1075.92L761.471,1075.76L761.333,1075.61L761.197,1075.45L761.062,1075.3L760.93,1075.14L760.799,1074.98L760.671,1074.82L760.544,1074.65L760.419,1074.49L760.296,1074.32L760.175,1074.16L760.056,1073.99L759.939,1073.82L759.824,1073.64L759.711,1073.47L759.601,1073.29L759.492,1073.12L759.385,1072.94L759.28,1072.76L759.178,1072.58L759.077,1072.4L758.979,1072.21L758.883,1072.03L758.789,1071.84L758.697,1071.66L758.608,1071.47L758.52,1071.28L758.435,1071.09L758.353,1070.89L758.272,1070.7L758.194,1070.51L758.118,1070.31L758.044,1070.11L757.973,1069.91L757.904,1069.71L757.838,1069.52L757.774,1069.31L757.712,1069.11L757.653,1068.91L757.596,1068.7L757.542,1068.5L757.49,1068.29L757.441,1068.08L757.394,1067.88L757.35,1067.67L757.308,1067.45L757.269,1067.24L757.232,1067.03L757.198,1066.82L757.167,1066.61L757.138,1066.39L757.112,1066.17L757.089,1065.96L757.068,1065.74L757.05,1065.52L757.035,1065.31L757.022,1065.09L757.013,1064.87L757.006,1064.64L757.001,1064.42L757,1064.2L757.001,1063.98L757.006,1063.76L757.013,1063.54L757.022,1063.32L757.035,1063.1L757.05,1062.88L757.068,1062.66L757.089,1062.44L757.112,1062.23L757.138,1062.01L757.167,1061.8L757.198,1061.58L757.232,1061.37L757.269,1061.16L757.308,1060.95L757.35,1060.74L757.394,1060.53L757.441,1060.32L757.49,1060.11L757.542,1059.9L757.596,1059.7L757.653,1059.49L757.712,1059.29L757.774,1059.09L757.838,1058.89L757.904,1058.69L757.973,1058.49L758.044,1058.29L758.118,1058.09L758.194,1057.9L758.272,1057.7L758.353,1057.51L758.435,1057.32L758.52,1057.12L758.608,1056.93L758.697,1056.75L758.789,1056.56L758.883,1056.37L758.979,1056.19L759.077,1056.01L759.178,1055.82L759.28,1055.64L759.385,1055.46L759.492,1055.28L759.601,1055.11L759.711,1054.93L759.824,1054.76L759.939,1054.59L760.056,1054.42L760.175,1054.25L760.296,1054.08L760.419,1053.91L760.544,1053.75L760.671,1053.58L760.799,1053.42L760.93,1053.26L761.062,1053.1L761.197,1052.95L761.333,1052.79L761.471,1052.64L761.61,1052.49L761.752,1052.34L761.895,1052.19L762.04,1052.04L762.187,1051.89L762.336,1051.75L762.486,1051.61L762.638,1051.47L762.792,1051.33L762.947,1051.2L763.104,1051.06L763.262,1050.93L763.422,1050.8L763.584,1050.67L763.747,1050.54L763.912,1050.42L764.078,1050.3L764.246,1050.17L764.416,1050.06L764.587,1049.94L764.759,1049.82L764.933,1049.71L765.108,1049.6L765.284,1049.49L765.462,1049.38L765.642,1049.28L765.823,1049.18L766.005,1049.08L766.188,1048.98L766.373,1048.88L766.559,1048.79L766.746,1048.7L766.935,1048.61L767.125,1048.52L767.316,1048.43L767.508,1048.35L767.702,1048.27L767.896,1048.19L768.092,1048.12L768.289,1048.04L768.487,1047.97L768.687,1047.9L768.887,1047.84L769.088,1047.77L769.291,1047.71L769.494,1047.65L769.699,1047.6L769.904,1047.54L770.111,1047.49L770.318,1047.44L770.527,1047.39L770.736,1047.35L770.947,1047.31L771.158,1047.27L771.37,1047.23L771.583,1047.2L771.797,1047.17L772.011,1047.14L772.227,1047.11L772.443,1047.09L772.66,1047.07L772.878,1047.05L773.097,1047.04L773.316,1047.02L773.536,1047.01L773.757,1047.01L773.979,1047L774.423,1047L774.645,1047.01L774.865,1047.01L775.086,1047.02L775.305,1047.04L775.524,1047.05L775.741,1047.07L775.959,1047.09L776.175,1047.11L776.605,1047.17L776.819,1047.2L777.032,1047.23L777.244,1047.27L777.666,1047.35L777.875,1047.39L778.084,1047.44L778.498,1047.54L778.703,1047.6L778.908,1047.65L779.314,1047.77L779.515,1047.84L779.715,1047.9L779.915,1047.97L780.113,1048.04L780.31,1048.12L780.506,1048.19L780.894,1048.35L781.086,1048.43L781.277,1048.52L781.467,1048.61L781.656,1048.7L781.843,1048.79L782.029,1048.88L782.214,1048.98L782.397,1049.08L782.579,1049.18L782.76,1049.28L782.939,1049.38L783.117,1049.49L783.294,1049.6L783.469,1049.71L783.643,1049.82L783.815,1049.94L783.986,1050.06L784.156,1050.17L784.323,1050.3L784.49,1050.42L784.655,1050.54L784.818,1050.67L784.98,1050.8L785.14,1050.93L785.298,1051.06L785.455,1051.2L785.61,1051.33L785.764,1051.47L785.916,1051.61L786.066,1051.75L786.215,1051.89L786.507,1052.19L786.65,1052.34L786.791,1052.49L786.931,1052.64L787.069,1052.79L787.205,1052.95L787.34,1053.1L787.472,1053.26L787.603,1053.42L787.731,1053.58L787.858,1053.75L787.983,1053.91L788.106,1054.08L788.227,1054.25L788.346,1054.42L788.463,1054.59L788.578,1054.76L788.69,1054.93L788.801,1055.11L788.91,1055.28L789.017,1055.46L789.122,1055.64L789.224,1055.82L789.325,1056.01L789.423,1056.19L789.519,1056.37L789.613,1056.56L789.705,1056.75L789.794,1056.93L789.881,1057.12L789.967,1057.32L790.049,1057.51L790.13,1057.7L790.208,1057.9L790.284,1058.09L790.357,1058.29L790.429,1058.49L790.498,1058.69L790.564,1058.89L790.628,1059.09L790.69,1059.29L790.749,1059.49L790.806,1059.7L790.86,1059.9L790.912,1060.11L790.961,1060.32L791.008,1060.53L791.052,1060.74L791.094,1060.95L791.133,1061.16L791.17,1061.37L791.204,1061.58L791.235,1061.8L791.264,1062.01L791.29,1062.23L791.313,1062.44L791.334,1062.66L791.352,1062.88L791.367,1063.1L791.38,1063.32L791.389,1063.54L791.396,1063.76L791.401,1063.98L791.402,1064.2L791.401,1064.42L791.396,1064.64L791.389,1064.87L791.38,1065.09L791.367,1065.31L791.352,1065.52L791.334,1065.74L791.313,1065.96L791.29,1066.17L791.264,1066.39L791.235,1066.61L791.204,1066.82L791.17,1067.03L791.133,1067.24L791.094,1067.45L791.052,1067.67L791.008,1067.88L790.961,1068.08L790.912,1068.29L790.86,1068.5L790.806,1068.7L790.749,1068.91L790.69,1069.11L790.628,1069.31L790.564,1069.52L790.498,1069.71L790.429,1069.91L790.357,1070.11L790.284,1070.31L790.208,1070.51L790.13,1070.7L790.049,1070.89L789.967,1071.09L789.881,1071.28L789.794,1071.47L789.705,1071.66L789.613,1071.84L789.519,1072.03L789.423,1072.21L789.325,1072.4L789.224,1072.58L789.122,1072.76L789.017,1072.94L788.91,1073.12L788.801,1073.29L788.69,1073.47L788.578,1073.64L788.463,1073.82L788.346,1073.99L788.227,1074.16L788.106,1074.32L787.983,1074.49L787.858,1074.65L787.731,1074.82L787.603,1074.98L787.472,1075.14L787.34,1075.3L787.205,1075.45L787.069,1075.61L786.931,1075.76L786.791,1075.92L786.65,1076.07L786.507,1076.21L786.361,1076.36L786.215,1076.51L786.066,1076.65L785.916,1076.79L785.764,1076.93L785.61,1077.07L785.455,1077.2L785.298,1077.34L785.14,1077.47L784.98,1077.6L784.818,1077.73L784.655,1077.86L784.49,1077.98L784.323,1078.11L784.156,1078.23L783.986,1078.35L783.815,1078.46L783.643,1078.58L783.469,1078.69L783.294,1078.8L783.117,1078.91L782.939,1079.02L782.76,1079.12L782.579,1079.22L782.397,1079.33L782.214,1079.42L782.029,1079.52L781.843,1079.61L781.656,1079.7L781.467,1079.79L781.277,1079.88L781.086,1079.97L780.894,1080.05L780.7,1080.13L780.506,1080.21L780.31,1080.28L780.113,1080.36L779.915,1080.43L779.715,1080.5L779.515,1080.56L779.314,1080.63L779.111,1080.69L778.908,1080.75L778.703,1080.81L778.498,1080.86L778.291,1080.91L778.084,1080.96L777.875,1081.01L777.666,1081.05L777.455,1081.09L777.244,1081.13L777.032,1081.17L776.819,1081.2L776.605,1081.24L776.39,1081.26L776.175,1081.29L775.959,1081.31L775.741,1081.33L775.524,1081.35L775.305,1081.37L775.086,1081.38L774.865,1081.39L774.645,1081.4L774.423,1081.4L774.201,1081.4ZM774.201,1078.76L774.39,1078.75L774.765,1078.75L774.951,1078.74L775.137,1078.73L775.323,1078.71L775.507,1078.7L775.691,1078.68L775.874,1078.66L776.056,1078.64L776.238,1078.61L776.419,1078.59L776.599,1078.56L776.778,1078.53L776.957,1078.5L777.135,1078.46L777.312,1078.42L777.488,1078.38L777.663,1078.34L777.838,1078.3L778.011,1078.25L778.184,1078.2L778.356,1078.15L778.527,1078.1L778.697,1078.05L778.866,1077.99L779.035,1077.93L779.202,1077.87L779.369,1077.81L779.534,1077.75L779.699,1077.68L779.862,1077.61L780.025,1077.54L780.186,1077.47L780.347,1077.4L780.506,1077.32L780.665,1077.24L780.822,1077.16L780.978,1077.08L781.133,1077L781.287,1076.91L781.44,1076.83L781.592,1076.74L781.743,1076.65L781.892,1076.56L782.041,1076.46L782.188,1076.37L782.334,1076.27L782.478,1076.17L782.622,1076.07L782.764,1075.97L782.905,1075.86L783.044,1075.76L783.183,1075.65L783.319,1075.54L783.455,1075.43L783.589,1075.32L783.722,1075.2L783.854,1075.09L783.984,1074.97L784.113,1074.86L784.24,1074.74L784.366,1074.61L784.49,1074.49L784.613,1074.37L784.735,1074.24L784.855,1074.11L784.973,1073.98L785.09,1073.85L785.205,1073.72L785.319,1073.59L785.431,1073.45L785.542,1073.32L785.651,1073.18L785.758,1073.04L785.864,1072.9L785.968,1072.76L786.07,1072.62L786.171,1072.48L786.27,1072.33L786.367,1072.19L786.463,1072.04L786.557,1071.89L786.649,1071.74L786.739,1071.59L786.828,1071.44L786.915,1071.29L786.999,1071.13L787.083,1070.98L787.164,1070.82L787.243,1070.66L787.321,1070.51L787.397,1070.35L787.47,1070.19L787.542,1070.03L787.612,1069.86L787.68,1069.7L787.746,1069.53L787.81,1069.37L787.873,1069.2L787.933,1069.04L787.991,1068.87L788.047,1068.7L788.101,1068.53L788.153,1068.36L788.203,1068.18L788.251,1068.01L788.297,1067.84L788.341,1067.66L788.383,1067.49L788.422,1067.31L788.46,1067.13L788.495,1066.96L788.528,1066.78L788.559,1066.6L788.588,1066.42L788.614,1066.24L788.638,1066.06L788.66,1065.87L788.68,1065.69L788.698,1065.51L788.713,1065.32L788.726,1065.14L788.737,1064.95L788.745,1064.77L788.751,1064.58L788.754,1064.39L788.756,1064.2L788.754,1064.01L788.751,1063.82L788.745,1063.64L788.737,1063.45L788.726,1063.27L788.713,1063.08L788.698,1062.89L788.68,1062.71L788.66,1062.53L788.638,1062.35L788.614,1062.16L788.588,1061.98L788.559,1061.8L788.528,1061.62L788.495,1061.44L788.46,1061.27L788.422,1061.09L788.383,1060.91L788.341,1060.74L788.297,1060.56L788.251,1060.39L788.203,1060.22L788.153,1060.05L788.101,1059.88L788.047,1059.7L787.991,1059.54L787.933,1059.37L787.873,1059.2L787.811,1059.03L787.746,1058.87L787.68,1058.7L787.612,1058.54L787.542,1058.38L787.47,1058.22L787.397,1058.06L787.321,1057.9L787.243,1057.74L787.164,1057.58L787.083,1057.42L786.999,1057.27L786.915,1057.11L786.828,1056.96L786.739,1056.81L786.649,1056.66L786.557,1056.51L786.463,1056.36L786.367,1056.21L786.27,1056.07L786.171,1055.92L786.07,1055.78L785.968,1055.64L785.864,1055.5L785.758,1055.36L785.651,1055.22L785.542,1055.08L785.431,1054.95L785.319,1054.81L785.205,1054.68L785.09,1054.55L784.973,1054.42L784.855,1054.29L784.735,1054.16L784.613,1054.04L784.49,1053.91L784.366,1053.79L784.24,1053.67L784.113,1053.55L783.984,1053.43L783.854,1053.31L783.722,1053.2L783.589,1053.08L783.455,1052.97L783.32,1052.86L783.183,1052.75L783.044,1052.64L782.905,1052.54L782.764,1052.43L782.622,1052.33L782.478,1052.23L782.334,1052.13L782.188,1052.04L782.041,1051.94L781.892,1051.85L781.743,1051.75L781.592,1051.66L781.44,1051.57L781.287,1051.49L781.133,1051.4L780.978,1051.32L780.822,1051.24L780.665,1051.16L780.506,1051.08L780.347,1051.01L780.186,1050.93L780.025,1050.86L779.862,1050.79L779.699,1050.72L779.534,1050.66L779.369,1050.59L779.202,1050.53L779.035,1050.47L778.866,1050.41L778.697,1050.36L778.527,1050.3L778.356,1050.25L778.184,1050.2L778.011,1050.15L777.838,1050.11L777.663,1050.06L777.488,1050.02L777.312,1049.98L777.135,1049.94L776.957,1049.91L776.778,1049.87L776.599,1049.84L776.419,1049.81L776.238,1049.79L776.056,1049.76L775.874,1049.74L775.691,1049.72L775.507,1049.7L775.323,1049.69L775.137,1049.68L774.951,1049.66L774.765,1049.66L774.578,1049.65L774.39,1049.65L774.201,1049.65L774.012,1049.65L773.824,1049.65L773.637,1049.66L773.451,1049.66L773.265,1049.68L773.079,1049.69L772.895,1049.7L772.711,1049.72L772.528,1049.74L772.346,1049.76L772.164,1049.79L771.983,1049.81L771.803,1049.84L771.624,1049.87L771.445,1049.91L771.267,1049.94L771.09,1049.98L770.914,1050.02L770.739,1050.06L770.564,1050.11L770.391,1050.15L770.218,1050.2L770.046,1050.25L769.875,1050.3L769.705,1050.36L769.535,1050.41L769.367,1050.47L769.2,1050.53L769.033,1050.59L768.868,1050.66L768.703,1050.72L768.54,1050.79L768.377,1050.86L768.216,1050.93L768.055,1051.01L767.896,1051.08L767.737,1051.16L767.58,1051.24L767.424,1051.32L767.269,1051.4L767.114,1051.49L766.962,1051.57L766.81,1051.66L766.659,1051.75L766.51,1051.85L766.361,1051.94L766.214,1052.04L766.068,1052.13L765.924,1052.23L765.78,1052.33L765.638,1052.43L765.497,1052.54L765.358,1052.64L765.219,1052.75L765.082,1052.86L764.947,1052.97L764.813,1053.08L764.68,1053.2L764.548,1053.31L764.418,1053.43L764.289,1053.55L764.162,1053.67L764.036,1053.79L763.912,1053.91L763.789,1054.04L763.667,1054.16L763.547,1054.29L763.429,1054.42L763.312,1054.55L763.197,1054.68L763.083,1054.81L762.971,1054.95L762.86,1055.08L762.751,1055.22L762.644,1055.36L762.538,1055.5L762.434,1055.64L762.332,1055.78L762.231,1055.92L762.132,1056.07L762.035,1056.21L761.939,1056.36L761.845,1056.51L761.753,1056.66L761.663,1056.81L761.574,1056.96L761.487,1057.11L761.402,1057.27L761.319,1057.42L761.238,1057.58L761.159,1057.74L761.081,1057.9L761.005,1058.06L760.932,1058.22L760.86,1058.38L760.79,1058.54L760.722,1058.7L760.656,1058.87L760.591,1059.03L760.529,1059.2L760.469,1059.37L760.411,1059.54L760.355,1059.7L760.301,1059.88L760.249,1060.05L760.198,1060.22L760.151,1060.39L760.105,1060.56L760.061,1060.74L760.019,1060.91L759.98,1061.09L759.942,1061.27L759.907,1061.44L759.874,1061.62L759.843,1061.8L759.814,1061.98L759.788,1062.16L759.763,1062.35L759.741,1062.53L759.722,1062.71L759.704,1062.89L759.689,1063.08L759.676,1063.27L759.665,1063.45L759.657,1063.64L759.651,1063.82L759.648,1064.01L759.646,1064.2L759.648,1064.39L759.651,1064.58L759.657,1064.77L759.665,1064.95L759.676,1065.14L759.689,1065.32L759.704,1065.51L759.722,1065.69L759.741,1065.87L759.763,1066.06L759.788,1066.24L759.814,1066.42L759.843,1066.6L759.874,1066.78L759.907,1066.96L759.942,1067.13L759.98,1067.31L760.019,1067.49L760.061,1067.66L760.105,1067.84L760.151,1068.01L760.198,1068.18L760.249,1068.36L760.301,1068.53L760.355,1068.7L760.411,1068.87L760.469,1069.04L760.529,1069.2L760.591,1069.37L760.656,1069.53L760.722,1069.7L760.79,1069.86L760.86,1070.03L760.932,1070.19L761.005,1070.35L761.081,1070.51L761.159,1070.66L761.238,1070.82L761.319,1070.98L761.402,1071.13L761.487,1071.29L761.574,1071.44L761.663,1071.59L761.753,1071.74L761.845,1071.89L761.939,1072.04L762.035,1072.19L762.132,1072.33L762.231,1072.48L762.332,1072.62L762.434,1072.76L762.538,1072.9L762.644,1073.04L762.751,1073.18L762.86,1073.32L762.971,1073.45L763.083,1073.59L763.197,1073.72L763.312,1073.85L763.429,1073.98L763.547,1074.11L763.667,1074.24L763.789,1074.37L763.912,1074.49L764.036,1074.61L764.162,1074.74L764.289,1074.86L764.418,1074.97L764.548,1075.09L764.68,1075.2L764.813,1075.32L764.947,1075.43L765.082,1075.54L765.219,1075.65L765.358,1075.76L765.497,1075.86L765.638,1075.97L765.78,1076.07L766.068,1076.27L766.214,1076.37L766.361,1076.46L766.51,1076.56L766.659,1076.65L766.81,1076.74L766.962,1076.83L767.114,1076.91L767.269,1077L767.424,1077.08L767.58,1077.16L767.737,1077.24L768.055,1077.4L768.377,1077.54L768.703,1077.68L768.868,1077.75L769.033,1077.81L769.367,1077.93L769.535,1077.99L769.705,1078.05L769.875,1078.1L770.046,1078.15L770.218,1078.2L770.564,1078.3L770.914,1078.38L771.09,1078.42L771.267,1078.46L771.445,1078.5L771.803,1078.56L771.983,1078.59L772.164,1078.61L772.346,1078.64L772.528,1078.66L772.711,1078.68L772.895,1078.7L773.079,1078.71L773.265,1078.73L773.45,1078.74L773.637,1078.75L774.012,1078.75L774.201,1078.76Z" style="fill:rgb(14,188,234);"/>
        </g>
        <g transform="matrix(0.377886,-9.67051e-19,-1.03964e-18,0.377886,-228.06,-365.512)">
            <circle cx="774.201" cy="1064.2" r="17.201" style="fill:white;"/>
            <path d="M774.201,1081.4L773.979,1081.4L773.757,1081.4L773.536,1081.39L773.316,1081.38L773.097,1081.37L772.878,1081.35L772.66,1081.33L772.443,1081.31L772.227,1081.29L772.011,1081.26L771.797,1081.24L771.583,1081.2L771.37,1081.17L771.158,1081.13L770.947,1081.09L770.736,1081.05L770.527,1081.01L770.318,1080.96L770.111,1080.91L769.904,1080.86L769.699,1080.81L769.494,1080.75L769.291,1080.69L769.088,1080.63L768.887,1080.56L768.687,1080.5L768.487,1080.43L768.289,1080.36L768.092,1080.28L767.896,1080.21L767.702,1080.13L767.508,1080.05L767.316,1079.97L767.125,1079.88L766.935,1079.79L766.746,1079.7L766.559,1079.61L766.373,1079.52L766.188,1079.42L766.005,1079.33L765.823,1079.22L765.642,1079.12L765.462,1079.02L765.284,1078.91L765.108,1078.8L764.933,1078.69L764.759,1078.58L764.587,1078.46L764.416,1078.35L764.246,1078.23L764.078,1078.11L763.912,1077.98L763.747,1077.86L763.584,1077.73L763.422,1077.6L763.262,1077.47L763.104,1077.34L762.947,1077.2L762.792,1077.07L762.638,1076.93L762.486,1076.79L762.336,1076.65L762.187,1076.51L762.04,1076.36L761.895,1076.21L761.752,1076.07L761.61,1075.92L761.471,1075.76L761.333,1075.61L761.197,1075.45L761.062,1075.3L760.93,1075.14L760.799,1074.98L760.671,1074.82L760.544,1074.65L760.419,1074.49L760.296,1074.32L760.175,1074.16L760.056,1073.99L759.939,1073.82L759.824,1073.64L759.711,1073.47L759.601,1073.29L759.492,1073.12L759.385,1072.94L759.28,1072.76L759.178,1072.58L759.077,1072.4L758.979,1072.21L758.883,1072.03L758.789,1071.84L758.697,1071.66L758.608,1071.47L758.52,1071.28L758.435,1071.09L758.353,1070.89L758.272,1070.7L758.194,1070.51L758.118,1070.31L758.044,1070.11L757.973,1069.91L757.904,1069.71L757.838,1069.52L757.774,1069.31L757.712,1069.11L757.653,1068.91L757.596,1068.7L757.542,1068.5L757.49,1068.29L757.441,1068.08L757.394,1067.88L757.35,1067.67L757.308,1067.45L757.269,1067.24L757.232,1067.03L757.198,1066.82L757.167,1066.61L757.138,1066.39L757.112,1066.17L757.089,1065.96L757.068,1065.74L757.05,1065.52L757.035,1065.31L757.022,1065.09L757.013,1064.87L757.006,1064.64L757.001,1064.42L757,1064.2L757.001,1063.98L757.006,1063.76L757.013,1063.54L757.022,1063.32L757.035,1063.1L757.05,1062.88L757.068,1062.66L757.089,1062.44L757.112,1062.23L757.138,1062.01L757.167,1061.8L757.198,1061.58L757.232,1061.37L757.269,1061.16L757.308,1060.95L757.35,1060.74L757.394,1060.53L757.441,1060.32L757.49,1060.11L757.542,1059.9L757.596,1059.7L757.653,1059.49L757.712,1059.29L757.774,1059.09L757.838,1058.89L757.904,1058.69L757.973,1058.49L758.044,1058.29L758.118,1058.09L758.194,1057.9L758.272,1057.7L758.353,1057.51L758.435,1057.32L758.52,1057.12L758.608,1056.93L758.697,1056.75L758.789,1056.56L758.883,1056.37L758.979,1056.19L759.077,1056.01L759.178,1055.82L759.28,1055.64L759.385,1055.46L759.492,1055.28L759.601,1055.11L759.711,1054.93L759.824,1054.76L759.939,1054.59L760.056,1054.42L760.175,1054.25L760.296,1054.08L760.419,1053.91L760.544,1053.75L760.671,1053.58L760.799,1053.42L760.93,1053.26L761.062,1053.1L761.197,1052.95L761.333,1052.79L761.471,1052.64L761.61,1052.49L761.752,1052.34L761.895,1052.19L762.04,1052.04L762.187,1051.89L762.336,1051.75L762.486,1051.61L762.638,1051.47L762.792,1051.33L762.947,1051.2L763.104,1051.06L763.262,1050.93L763.422,1050.8L763.584,1050.67L763.747,1050.54L763.912,1050.42L764.078,1050.3L764.246,1050.17L764.416,1050.06L764.587,1049.94L764.759,1049.82L764.933,1049.71L765.108,1049.6L765.284,1049.49L765.462,1049.38L765.642,1049.28L765.823,1049.18L766.005,1049.08L766.188,1048.98L766.373,1048.88L766.559,1048.79L766.746,1048.7L766.935,1048.61L767.125,1048.52L767.316,1048.43L767.508,1048.35L767.702,1048.27L767.896,1048.19L768.092,1048.12L768.289,1048.04L768.487,1047.97L768.687,1047.9L768.887,1047.84L769.088,1047.77L769.291,1047.71L769.494,1047.65L769.699,1047.6L769.904,1047.54L770.111,1047.49L770.318,1047.44L770.527,1047.39L770.736,1047.35L770.947,1047.31L771.158,1047.27L771.37,1047.23L771.583,1047.2L771.797,1047.17L772.011,1047.14L772.227,1047.11L772.443,1047.09L772.66,1047.07L772.878,1047.05L773.097,1047.04L773.316,1047.02L773.536,1047.01L773.757,1047.01L773.979,1047L774.423,1047L774.645,1047.01L774.865,1047.01L775.086,1047.02L775.305,1047.04L775.524,1047.05L775.741,1047.07L775.959,1047.09L776.175,1047.11L776.605,1047.17L776.819,1047.2L777.032,1047.23L777.244,1047.27L777.666,1047.35L777.875,1047.39L778.084,1047.44L778.498,1047.54L778.703,1047.6L778.908,1047.65L779.314,1047.77L779.515,1047.84L779.715,1047.9L779.915,1047.97L780.113,1048.04L780.31,1048.12L780.506,1048.19L780.894,1048.35L781.086,1048.43L781.277,1048.52L781.467,1048.61L781.656,1048.7L781.843,1048.79L782.029,1048.88L782.214,1048.98L782.397,1049.08L782.579,1049.18L782.76,1049.28L782.939,1049.38L783.117,1049.49L783.294,1049.6L783.469,1049.71L783.643,1049.82L783.815,1049.94L783.986,1050.06L784.156,1050.17L784.323,1050.3L784.49,1050.42L784.655,1050.54L784.818,1050.67L784.98,1050.8L785.14,1050.93L785.298,1051.06L785.455,1051.2L785.61,1051.33L785.764,1051.47L785.916,1051.61L786.066,1051.75L786.215,1051.89L786.507,1052.19L786.65,1052.34L786.791,1052.49L786.931,1052.64L787.069,1052.79L787.205,1052.95L787.34,1053.1L787.472,1053.26L787.603,1053.42L787.731,1053.58L787.858,1053.75L787.983,1053.91L788.106,1054.08L788.227,1054.25L788.346,1054.42L788.463,1054.59L788.578,1054.76L788.69,1054.93L788.801,1055.11L788.91,1055.28L789.017,1055.46L789.122,1055.64L789.224,1055.82L789.325,1056.01L789.423,1056.19L789.519,1056.37L789.613,1056.56L789.705,1056.75L789.794,1056.93L789.881,1057.12L789.967,1057.32L790.049,1057.51L790.13,1057.7L790.208,1057.9L790.284,1058.09L790.357,1058.29L790.429,1058.49L790.498,1058.69L790.564,1058.89L790.628,1059.09L790.69,1059.29L790.749,1059.49L790.806,1059.7L790.86,1059.9L790.912,1060.11L790.961,1060.32L791.008,1060.53L791.052,1060.74L791.094,1060.95L791.133,1061.16L791.17,1061.37L791.204,1061.58L791.235,1061.8L791.264,1062.01L791.29,1062.23L791.313,1062.44L791.334,1062.66L791.352,1062.88L791.367,1063.1L791.38,1063.32L791.389,1063.54L791.396,1063.76L791.401,1063.98L791.402,1064.2L791.401,1064.42L791.396,1064.64L791.389,1064.87L791.38,1065.09L791.367,1065.31L791.352,1065.52L791.334,1065.74L791.313,1065.96L791.29,1066.17L791.264,1066.39L791.235,1066.61L791.204,1066.82L791.17,1067.03L791.133,1067.24L791.094,1067.45L791.052,1067.67L791.008,1067.88L790.961,1068.08L790.912,1068.29L790.86,1068.5L790.806,1068.7L790.749,1068.91L790.69,1069.11L790.628,1069.31L790.564,1069.52L790.498,1069.71L790.429,1069.91L790.357,1070.11L790.284,1070.31L790.208,1070.51L790.13,1070.7L790.049,1070.89L789.967,1071.09L789.881,1071.28L789.794,1071.47L789.705,1071.66L789.613,1071.84L789.519,1072.03L789.423,1072.21L789.325,1072.4L789.224,1072.58L789.122,1072.76L789.017,1072.94L788.91,1073.12L788.801,1073.29L788.69,1073.47L788.578,1073.64L788.463,1073.82L788.346,1073.99L788.227,1074.16L788.106,1074.32L787.983,1074.49L787.858,1074.65L787.731,1074.82L787.603,1074.98L787.472,1075.14L787.34,1075.3L787.205,1075.45L787.069,1075.61L786.931,1075.76L786.791,1075.92L786.65,1076.07L786.507,1076.21L786.361,1076.36L786.215,1076.51L786.066,1076.65L785.916,1076.79L785.764,1076.93L785.61,1077.07L785.455,1077.2L785.298,1077.34L785.14,1077.47L784.98,1077.6L784.818,1077.73L784.655,1077.86L784.49,1077.98L784.323,1078.11L784.156,1078.23L783.986,1078.35L783.815,1078.46L783.643,1078.58L783.469,1078.69L783.294,1078.8L783.117,1078.91L782.939,1079.02L782.76,1079.12L782.579,1079.22L782.397,1079.33L782.214,1079.42L782.029,1079.52L781.843,1079.61L781.656,1079.7L781.467,1079.79L781.277,1079.88L781.086,1079.97L780.894,1080.05L780.7,1080.13L780.506,1080.21L780.31,1080.28L780.113,1080.36L779.915,1080.43L779.715,1080.5L779.515,1080.56L779.314,1080.63L779.111,1080.69L778.908,1080.75L778.703,1080.81L778.498,1080.86L778.291,1080.91L778.084,1080.96L777.875,1081.01L777.666,1081.05L777.455,1081.09L777.244,1081.13L777.032,1081.17L776.819,1081.2L776.605,1081.24L776.39,1081.26L776.175,1081.29L775.959,1081.31L775.741,1081.33L775.524,1081.35L775.305,1081.37L775.086,1081.38L774.865,1081.39L774.645,1081.4L774.423,1081.4L774.201,1081.4ZM774.201,1078.76L774.39,1078.75L774.765,1078.75L774.951,1078.74L775.137,1078.73L775.323,1078.71L775.507,1078.7L775.691,1078.68L775.874,1078.66L776.056,1078.64L776.238,1078.61L776.419,1078.59L776.599,1078.56L776.778,1078.53L776.957,1078.5L777.135,1078.46L777.312,1078.42L777.488,1078.38L777.663,1078.34L777.838,1078.3L778.011,1078.25L778.184,1078.2L778.356,1078.15L778.527,1078.1L778.697,1078.05L778.866,1077.99L779.035,1077.93L779.202,1077.87L779.369,1077.81L779.534,1077.75L779.699,1077.68L779.862,1077.61L780.025,1077.54L780.186,1077.47L780.347,1077.4L780.506,1077.32L780.665,1077.24L780.822,1077.16L780.978,1077.08L781.133,1077L781.287,1076.91L781.44,1076.83L781.592,1076.74L781.743,1076.65L781.892,1076.56L782.041,1076.46L782.188,1076.37L782.334,1076.27L782.478,1076.17L782.622,1076.07L782.764,1075.97L782.905,1075.86L783.044,1075.76L783.183,1075.65L783.319,1075.54L783.455,1075.43L783.589,1075.32L783.722,1075.2L783.854,1075.09L783.984,1074.97L784.113,1074.86L784.24,1074.74L784.366,1074.61L784.49,1074.49L784.613,1074.37L784.735,1074.24L784.855,1074.11L784.973,1073.98L785.09,1073.85L785.205,1073.72L785.319,1073.59L785.431,1073.45L785.542,1073.32L785.651,1073.18L785.758,1073.04L785.864,1072.9L785.968,1072.76L786.07,1072.62L786.171,1072.48L786.27,1072.33L786.367,1072.19L786.463,1072.04L786.557,1071.89L786.649,1071.74L786.739,1071.59L786.828,1071.44L786.915,1071.29L786.999,1071.13L787.083,1070.98L787.164,1070.82L787.243,1070.66L787.321,1070.51L787.397,1070.35L787.47,1070.19L787.542,1070.03L787.612,1069.86L787.68,1069.7L787.746,1069.53L787.811,1069.37L787.873,1069.2L787.933,1069.04L787.991,1068.87L788.047,1068.7L788.101,1068.53L788.153,1068.36L788.203,1068.18L788.251,1068.01L788.297,1067.84L788.341,1067.66L788.383,1067.49L788.422,1067.31L788.46,1067.13L788.495,1066.96L788.528,1066.78L788.559,1066.6L788.588,1066.42L788.614,1066.24L788.638,1066.06L788.66,1065.87L788.68,1065.69L788.698,1065.51L788.713,1065.32L788.726,1065.14L788.737,1064.95L788.745,1064.77L788.751,1064.58L788.754,1064.39L788.756,1064.2L788.754,1064.01L788.751,1063.82L788.745,1063.64L788.737,1063.45L788.726,1063.27L788.713,1063.08L788.698,1062.89L788.68,1062.71L788.66,1062.53L788.638,1062.35L788.614,1062.16L788.588,1061.98L788.559,1061.8L788.528,1061.62L788.495,1061.44L788.46,1061.27L788.422,1061.09L788.383,1060.91L788.341,1060.74L788.297,1060.56L788.251,1060.39L788.203,1060.22L788.153,1060.05L788.101,1059.88L788.047,1059.7L787.991,1059.54L787.933,1059.37L787.873,1059.2L787.811,1059.03L787.746,1058.87L787.68,1058.7L787.612,1058.54L787.542,1058.38L787.47,1058.22L787.397,1058.06L787.321,1057.9L787.243,1057.74L787.164,1057.58L787.083,1057.42L786.999,1057.27L786.915,1057.11L786.828,1056.96L786.739,1056.81L786.649,1056.66L786.557,1056.51L786.463,1056.36L786.367,1056.21L786.27,1056.07L786.171,1055.92L786.07,1055.78L785.968,1055.64L785.864,1055.5L785.758,1055.36L785.651,1055.22L785.542,1055.08L785.431,1054.95L785.319,1054.81L785.205,1054.68L785.09,1054.55L784.973,1054.42L784.855,1054.29L784.735,1054.16L784.613,1054.04L784.49,1053.91L784.366,1053.79L784.24,1053.67L784.113,1053.55L783.984,1053.43L783.854,1053.31L783.722,1053.2L783.589,1053.08L783.455,1052.97L783.32,1052.86L783.183,1052.75L783.044,1052.64L782.905,1052.54L782.764,1052.43L782.622,1052.33L782.478,1052.23L782.334,1052.13L782.188,1052.04L782.041,1051.94L781.892,1051.85L781.743,1051.75L781.592,1051.66L781.44,1051.57L781.287,1051.49L781.133,1051.4L780.978,1051.32L780.822,1051.24L780.665,1051.16L780.506,1051.08L780.347,1051.01L780.186,1050.93L780.025,1050.86L779.862,1050.79L779.699,1050.72L779.534,1050.66L779.369,1050.59L779.202,1050.53L779.035,1050.47L778.866,1050.41L778.697,1050.36L778.527,1050.3L778.356,1050.25L778.184,1050.2L778.011,1050.15L777.838,1050.11L777.663,1050.06L777.488,1050.02L777.312,1049.98L777.135,1049.94L776.957,1049.91L776.778,1049.87L776.599,1049.84L776.419,1049.81L776.238,1049.79L776.056,1049.76L775.874,1049.74L775.691,1049.72L775.507,1049.7L775.323,1049.69L775.137,1049.68L774.951,1049.66L774.765,1049.66L774.578,1049.65L774.39,1049.65L774.201,1049.65L774.012,1049.65L773.824,1049.65L773.637,1049.66L773.451,1049.66L773.265,1049.68L773.079,1049.69L772.895,1049.7L772.711,1049.72L772.528,1049.74L772.346,1049.76L772.164,1049.79L771.983,1049.81L771.803,1049.84L771.624,1049.87L771.445,1049.91L771.267,1049.94L771.09,1049.98L770.914,1050.02L770.739,1050.06L770.564,1050.11L770.391,1050.15L770.218,1050.2L770.046,1050.25L769.875,1050.3L769.705,1050.36L769.535,1050.41L769.367,1050.47L769.2,1050.53L769.033,1050.59L768.868,1050.66L768.703,1050.72L768.54,1050.79L768.377,1050.86L768.216,1050.93L768.055,1051.01L767.896,1051.08L767.737,1051.16L767.58,1051.24L767.424,1051.32L767.268,1051.4L767.114,1051.49L766.962,1051.57L766.81,1051.66L766.659,1051.75L766.51,1051.85L766.361,1051.94L766.214,1052.04L766.068,1052.13L765.924,1052.23L765.78,1052.33L765.638,1052.43L765.497,1052.54L765.358,1052.64L765.219,1052.75L765.082,1052.86L764.947,1052.97L764.813,1053.08L764.68,1053.2L764.548,1053.31L764.418,1053.43L764.289,1053.55L764.162,1053.67L764.036,1053.79L763.912,1053.91L763.789,1054.04L763.667,1054.16L763.547,1054.29L763.429,1054.42L763.312,1054.55L763.197,1054.68L763.083,1054.81L762.971,1054.95L762.86,1055.08L762.751,1055.22L762.644,1055.36L762.538,1055.5L762.434,1055.64L762.332,1055.78L762.231,1055.92L762.132,1056.07L762.035,1056.21L761.939,1056.36L761.845,1056.51L761.753,1056.66L761.663,1056.81L761.574,1056.96L761.487,1057.11L761.402,1057.27L761.319,1057.42L761.238,1057.58L761.159,1057.74L761.081,1057.9L761.005,1058.06L760.932,1058.22L760.86,1058.38L760.79,1058.54L760.722,1058.7L760.656,1058.87L760.591,1059.03L760.529,1059.2L760.469,1059.37L760.411,1059.54L760.355,1059.7L760.301,1059.88L760.249,1060.05L760.198,1060.22L760.151,1060.39L760.105,1060.56L760.061,1060.74L760.019,1060.91L759.98,1061.09L759.942,1061.27L759.907,1061.44L759.874,1061.62L759.843,1061.8L759.814,1061.98L759.788,1062.16L759.763,1062.35L759.741,1062.53L759.722,1062.71L759.704,1062.89L759.689,1063.08L759.676,1063.27L759.665,1063.45L759.657,1063.64L759.651,1063.82L759.648,1064.01L759.646,1064.2L759.648,1064.39L759.651,1064.58L759.657,1064.77L759.665,1064.95L759.676,1065.14L759.689,1065.32L759.704,1065.51L759.722,1065.69L759.741,1065.87L759.763,1066.06L759.788,1066.24L759.814,1066.42L759.843,1066.6L759.874,1066.78L759.907,1066.96L759.942,1067.13L759.98,1067.31L760.019,1067.49L760.061,1067.66L760.105,1067.84L760.151,1068.01L760.198,1068.18L760.249,1068.36L760.301,1068.53L760.355,1068.7L760.411,1068.87L760.469,1069.04L760.529,1069.2L760.591,1069.37L760.656,1069.53L760.722,1069.7L760.79,1069.86L760.86,1070.03L760.932,1070.19L761.005,1070.35L761.081,1070.51L761.159,1070.66L761.238,1070.82L761.319,1070.98L761.402,1071.13L761.487,1071.29L761.574,1071.44L761.663,1071.59L761.753,1071.74L761.845,1071.89L761.939,1072.04L762.035,1072.19L762.132,1072.33L762.231,1072.48L762.332,1072.62L762.434,1072.76L762.538,1072.9L762.644,1073.04L762.751,1073.18L762.86,1073.32L762.971,1073.45L763.083,1073.59L763.197,1073.72L763.312,1073.85L763.429,1073.98L763.547,1074.11L763.667,1074.24L763.789,1074.37L763.912,1074.49L764.036,1074.61L764.162,1074.74L764.289,1074.86L764.418,1074.97L764.548,1075.09L764.68,1075.2L764.813,1075.32L764.947,1075.43L765.082,1075.54L765.219,1075.65L765.358,1075.76L765.497,1075.86L765.638,1075.97L765.78,1076.07L766.068,1076.27L766.214,1076.37L766.361,1076.46L766.51,1076.56L766.659,1076.65L766.81,1076.74L766.962,1076.83L767.114,1076.91L767.268,1077L767.58,1077.16L767.737,1077.24L768.055,1077.4L768.377,1077.54L768.703,1077.68L768.868,1077.75L769.033,1077.81L769.367,1077.93L769.535,1077.99L769.705,1078.05L769.875,1078.1L770.046,1078.15L770.218,1078.2L770.564,1078.3L770.914,1078.38L771.09,1078.42L771.267,1078.46L771.445,1078.5L771.803,1078.56L771.983,1078.59L772.164,1078.61L772.346,1078.64L772.528,1078.66L772.711,1078.68L772.895,1078.7L773.079,1078.71L773.265,1078.73L773.637,1078.75L774.012,1078.75L774.201,1078.76Z" style="fill:rgb(14,188,234);"/>
        </g>
        <g transform="matrix(0.377886,-9.67051e-19,-1.03964e-18,0.377886,-210.06,-357.646)">
            <circle cx="774.201" cy="1064.2" r="17.201" style="fill:white;"/>
            <path d="M774.201,1081.4L773.979,1081.4L773.757,1081.4L773.536,1081.39L773.316,1081.38L773.097,1081.37L772.878,1081.35L772.66,1081.33L772.443,1081.31L772.227,1081.29L772.011,1081.26L771.797,1081.24L771.583,1081.2L771.37,1081.17L771.158,1081.13L770.947,1081.09L770.736,1081.05L770.527,1081.01L770.318,1080.96L770.111,1080.91L769.904,1080.86L769.699,1080.81L769.494,1080.75L769.291,1080.69L769.088,1080.63L768.887,1080.56L768.687,1080.5L768.487,1080.43L768.289,1080.36L768.092,1080.28L767.896,1080.21L767.702,1080.13L767.508,1080.05L767.316,1079.97L767.125,1079.88L766.935,1079.79L766.746,1079.7L766.559,1079.61L766.373,1079.52L766.188,1079.42L766.005,1079.33L765.823,1079.22L765.642,1079.12L765.462,1079.02L765.284,1078.91L765.108,1078.8L764.933,1078.69L764.759,1078.58L764.587,1078.46L764.416,1078.35L764.246,1078.23L764.078,1078.11L763.912,1077.98L763.747,1077.86L763.584,1077.73L763.422,1077.6L763.262,1077.47L763.104,1077.34L762.947,1077.2L762.792,1077.07L762.638,1076.93L762.486,1076.79L762.336,1076.65L762.187,1076.51L762.04,1076.36L761.895,1076.21L761.752,1076.07L761.61,1075.92L761.471,1075.76L761.333,1075.61L761.197,1075.45L761.062,1075.3L760.93,1075.14L760.799,1074.98L760.671,1074.82L760.544,1074.65L760.419,1074.49L760.296,1074.32L760.175,1074.16L760.056,1073.99L759.939,1073.82L759.824,1073.64L759.711,1073.47L759.601,1073.29L759.492,1073.12L759.385,1072.94L759.28,1072.76L759.178,1072.58L759.077,1072.4L758.979,1072.21L758.883,1072.03L758.789,1071.84L758.697,1071.66L758.608,1071.47L758.52,1071.28L758.435,1071.09L758.353,1070.89L758.272,1070.7L758.194,1070.51L758.118,1070.31L758.044,1070.11L757.973,1069.91L757.904,1069.71L757.838,1069.52L757.774,1069.31L757.712,1069.11L757.653,1068.91L757.596,1068.7L757.542,1068.5L757.49,1068.29L757.441,1068.08L757.394,1067.88L757.35,1067.67L757.308,1067.45L757.269,1067.24L757.232,1067.03L757.198,1066.82L757.167,1066.61L757.138,1066.39L757.112,1066.17L757.089,1065.96L757.068,1065.74L757.05,1065.52L757.035,1065.31L757.022,1065.09L757.013,1064.87L757.006,1064.64L757.001,1064.42L757,1064.2L757.001,1063.98L757.006,1063.76L757.013,1063.54L757.022,1063.32L757.035,1063.1L757.05,1062.88L757.068,1062.66L757.089,1062.44L757.112,1062.23L757.138,1062.01L757.167,1061.8L757.198,1061.58L757.232,1061.37L757.269,1061.16L757.308,1060.95L757.35,1060.74L757.394,1060.53L757.441,1060.32L757.49,1060.11L757.542,1059.9L757.596,1059.7L757.653,1059.49L757.712,1059.29L757.774,1059.09L757.838,1058.89L757.904,1058.69L757.973,1058.49L758.044,1058.29L758.118,1058.09L758.194,1057.9L758.272,1057.7L758.353,1057.51L758.435,1057.32L758.52,1057.12L758.608,1056.93L758.697,1056.75L758.789,1056.56L758.883,1056.37L758.979,1056.19L759.077,1056.01L759.178,1055.82L759.28,1055.64L759.385,1055.46L759.492,1055.28L759.601,1055.11L759.711,1054.93L759.824,1054.76L759.939,1054.59L760.056,1054.42L760.175,1054.25L760.296,1054.08L760.419,1053.91L760.544,1053.75L760.671,1053.58L760.799,1053.42L760.93,1053.26L761.062,1053.1L761.197,1052.95L761.333,1052.79L761.471,1052.64L761.61,1052.49L761.752,1052.34L761.895,1052.19L762.04,1052.04L762.187,1051.89L762.336,1051.75L762.486,1051.61L762.638,1051.47L762.792,1051.33L762.947,1051.2L763.104,1051.06L763.262,1050.93L763.422,1050.8L763.584,1050.67L763.747,1050.54L763.912,1050.42L764.078,1050.3L764.246,1050.17L764.416,1050.06L764.587,1049.94L764.759,1049.82L764.933,1049.71L765.108,1049.6L765.284,1049.49L765.462,1049.38L765.642,1049.28L765.823,1049.18L766.005,1049.08L766.188,1048.98L766.373,1048.88L766.559,1048.79L766.746,1048.7L766.935,1048.61L767.125,1048.52L767.316,1048.43L767.508,1048.35L767.702,1048.27L767.896,1048.19L768.092,1048.12L768.289,1048.04L768.487,1047.97L768.687,1047.9L768.887,1047.84L769.088,1047.77L769.291,1047.71L769.494,1047.65L769.699,1047.6L769.904,1047.54L770.111,1047.49L770.318,1047.44L770.527,1047.39L770.736,1047.35L770.947,1047.31L771.158,1047.27L771.37,1047.23L771.583,1047.2L771.797,1047.17L772.011,1047.14L772.227,1047.11L772.443,1047.09L772.66,1047.07L772.878,1047.05L773.097,1047.04L773.316,1047.02L773.536,1047.01L773.757,1047.01L773.979,1047L774.423,1047L774.645,1047.01L774.865,1047.01L775.086,1047.02L775.305,1047.04L775.524,1047.05L775.741,1047.07L775.959,1047.09L776.175,1047.11L776.605,1047.17L776.819,1047.2L777.032,1047.23L777.244,1047.27L777.666,1047.35L777.875,1047.39L778.084,1047.44L778.498,1047.54L778.703,1047.6L778.908,1047.65L779.314,1047.77L779.515,1047.84L779.715,1047.9L779.915,1047.97L780.113,1048.04L780.31,1048.12L780.506,1048.19L780.894,1048.35L781.086,1048.43L781.277,1048.52L781.467,1048.61L781.656,1048.7L781.843,1048.79L782.029,1048.88L782.214,1048.98L782.397,1049.08L782.579,1049.18L782.76,1049.28L782.939,1049.38L783.117,1049.49L783.294,1049.6L783.469,1049.71L783.643,1049.82L783.815,1049.94L783.986,1050.06L784.156,1050.17L784.323,1050.3L784.49,1050.42L784.655,1050.54L784.818,1050.67L784.98,1050.8L785.14,1050.93L785.298,1051.06L785.455,1051.2L785.61,1051.33L785.764,1051.47L785.916,1051.61L786.066,1051.75L786.215,1051.89L786.507,1052.19L786.65,1052.34L786.791,1052.49L786.931,1052.64L787.069,1052.79L787.205,1052.95L787.34,1053.1L787.472,1053.26L787.603,1053.42L787.731,1053.58L787.858,1053.75L787.983,1053.91L788.106,1054.08L788.227,1054.25L788.346,1054.42L788.463,1054.59L788.578,1054.76L788.69,1054.93L788.801,1055.11L788.91,1055.28L789.017,1055.46L789.122,1055.64L789.224,1055.82L789.325,1056.01L789.423,1056.19L789.519,1056.37L789.613,1056.56L789.705,1056.75L789.794,1056.93L789.881,1057.12L789.967,1057.32L790.049,1057.51L790.13,1057.7L790.208,1057.9L790.284,1058.09L790.357,1058.29L790.429,1058.49L790.498,1058.69L790.564,1058.89L790.628,1059.09L790.69,1059.29L790.749,1059.49L790.806,1059.7L790.86,1059.9L790.912,1060.11L790.961,1060.32L791.008,1060.53L791.052,1060.74L791.094,1060.95L791.133,1061.16L791.17,1061.37L791.204,1061.58L791.235,1061.8L791.264,1062.01L791.29,1062.23L791.313,1062.44L791.334,1062.66L791.352,1062.88L791.367,1063.1L791.38,1063.32L791.389,1063.54L791.396,1063.76L791.401,1063.98L791.402,1064.2L791.401,1064.42L791.396,1064.64L791.389,1064.87L791.38,1065.09L791.367,1065.31L791.352,1065.52L791.334,1065.74L791.313,1065.96L791.29,1066.17L791.264,1066.39L791.235,1066.61L791.204,1066.82L791.17,1067.03L791.133,1067.24L791.094,1067.45L791.052,1067.67L791.008,1067.88L790.961,1068.08L790.912,1068.29L790.86,1068.5L790.806,1068.7L790.749,1068.91L790.69,1069.11L790.628,1069.31L790.564,1069.52L790.498,1069.71L790.429,1069.91L790.357,1070.11L790.284,1070.31L790.208,1070.51L790.13,1070.7L790.049,1070.89L789.967,1071.09L789.881,1071.28L789.794,1071.47L789.705,1071.66L789.613,1071.84L789.519,1072.03L789.423,1072.21L789.325,1072.4L789.224,1072.58L789.122,1072.76L789.017,1072.94L788.91,1073.12L788.801,1073.29L788.69,1073.47L788.578,1073.64L788.463,1073.82L788.346,1073.99L788.227,1074.16L788.106,1074.32L787.983,1074.49L787.858,1074.65L787.731,1074.82L787.603,1074.98L787.472,1075.14L787.34,1075.3L787.205,1075.45L787.069,1075.61L786.931,1075.76L786.791,1075.92L786.65,1076.07L786.507,1076.21L786.361,1076.36L786.215,1076.51L786.066,1076.65L785.916,1076.79L785.764,1076.93L785.61,1077.07L785.455,1077.2L785.298,1077.34L785.14,1077.47L784.98,1077.6L784.818,1077.73L784.655,1077.86L784.49,1077.98L784.323,1078.11L784.156,1078.23L783.986,1078.35L783.815,1078.46L783.643,1078.58L783.469,1078.69L783.294,1078.8L783.117,1078.91L782.939,1079.02L782.76,1079.12L782.579,1079.22L782.397,1079.33L782.214,1079.42L782.029,1079.52L781.843,1079.61L781.656,1079.7L781.467,1079.79L781.277,1079.88L781.086,1079.97L780.894,1080.05L780.7,1080.13L780.506,1080.21L780.31,1080.28L780.113,1080.36L779.915,1080.43L779.715,1080.5L779.515,1080.56L779.314,1080.63L779.111,1080.69L778.908,1080.75L778.703,1080.81L778.498,1080.86L778.291,1080.91L778.084,1080.96L777.875,1081.01L777.666,1081.05L777.455,1081.09L777.244,1081.13L777.032,1081.17L776.819,1081.2L776.605,1081.24L776.39,1081.26L776.175,1081.29L775.959,1081.31L775.741,1081.33L775.524,1081.35L775.305,1081.37L775.086,1081.38L774.865,1081.39L774.645,1081.4L774.423,1081.4L774.201,1081.4ZM774.201,1078.76L774.39,1078.75L774.765,1078.75L774.951,1078.74L775.137,1078.73L775.323,1078.71L775.507,1078.7L775.691,1078.68L775.874,1078.66L776.056,1078.64L776.238,1078.61L776.419,1078.59L776.599,1078.56L776.778,1078.53L776.957,1078.5L777.135,1078.46L777.312,1078.42L777.488,1078.38L777.663,1078.34L777.838,1078.3L778.011,1078.25L778.184,1078.2L778.356,1078.15L778.527,1078.1L778.697,1078.05L778.866,1077.99L779.035,1077.93L779.202,1077.87L779.369,1077.81L779.534,1077.75L779.699,1077.68L779.862,1077.61L780.025,1077.54L780.186,1077.47L780.347,1077.4L780.506,1077.32L780.665,1077.24L780.822,1077.16L780.978,1077.08L781.133,1077L781.287,1076.91L781.44,1076.83L781.592,1076.74L781.743,1076.65L781.892,1076.56L782.041,1076.46L782.188,1076.37L782.334,1076.27L782.478,1076.17L782.622,1076.07L782.764,1075.97L782.905,1075.86L783.044,1075.76L783.183,1075.65L783.319,1075.54L783.455,1075.43L783.589,1075.32L783.722,1075.2L783.854,1075.09L783.984,1074.97L784.113,1074.86L784.24,1074.74L784.366,1074.61L784.49,1074.49L784.613,1074.37L784.735,1074.24L784.855,1074.11L784.973,1073.98L785.09,1073.85L785.205,1073.72L785.319,1073.59L785.431,1073.45L785.542,1073.32L785.651,1073.18L785.758,1073.04L785.864,1072.9L785.968,1072.76L786.07,1072.62L786.171,1072.48L786.27,1072.33L786.367,1072.19L786.463,1072.04L786.557,1071.89L786.649,1071.74L786.739,1071.59L786.828,1071.44L786.915,1071.29L786.999,1071.13L787.083,1070.98L787.164,1070.82L787.243,1070.66L787.321,1070.51L787.397,1070.35L787.47,1070.19L787.542,1070.03L787.612,1069.86L787.68,1069.7L787.746,1069.53L787.81,1069.37L787.873,1069.2L787.933,1069.04L787.991,1068.87L788.047,1068.7L788.101,1068.53L788.153,1068.36L788.203,1068.18L788.251,1068.01L788.297,1067.84L788.341,1067.66L788.383,1067.49L788.422,1067.31L788.46,1067.13L788.495,1066.96L788.528,1066.78L788.559,1066.6L788.588,1066.42L788.614,1066.24L788.638,1066.06L788.66,1065.87L788.68,1065.69L788.698,1065.51L788.713,1065.32L788.726,1065.14L788.737,1064.95L788.745,1064.77L788.751,1064.58L788.754,1064.39L788.756,1064.2L788.754,1064.01L788.751,1063.83L788.745,1063.64L788.737,1063.45L788.726,1063.27L788.713,1063.08L788.698,1062.89L788.68,1062.71L788.66,1062.53L788.638,1062.35L788.614,1062.16L788.588,1061.98L788.559,1061.8L788.528,1061.62L788.495,1061.44L788.46,1061.27L788.422,1061.09L788.383,1060.91L788.341,1060.74L788.297,1060.56L788.251,1060.39L788.203,1060.22L788.153,1060.05L788.101,1059.88L788.047,1059.7L787.991,1059.54L787.933,1059.37L787.873,1059.2L787.81,1059.03L787.746,1058.87L787.68,1058.7L787.612,1058.54L787.542,1058.38L787.47,1058.22L787.397,1058.06L787.321,1057.9L787.243,1057.74L787.164,1057.58L787.083,1057.42L786.999,1057.27L786.915,1057.11L786.828,1056.96L786.739,1056.81L786.649,1056.66L786.557,1056.51L786.463,1056.36L786.367,1056.21L786.27,1056.07L786.171,1055.92L786.07,1055.78L785.968,1055.64L785.864,1055.5L785.758,1055.36L785.651,1055.22L785.542,1055.08L785.431,1054.95L785.319,1054.81L785.205,1054.68L785.09,1054.55L784.973,1054.42L784.855,1054.29L784.735,1054.16L784.613,1054.04L784.49,1053.91L784.366,1053.79L784.24,1053.67L784.113,1053.55L783.984,1053.43L783.854,1053.31L783.722,1053.2L783.589,1053.08L783.455,1052.97L783.319,1052.86L783.183,1052.75L783.044,1052.64L782.905,1052.54L782.764,1052.43L782.622,1052.33L782.478,1052.23L782.334,1052.13L782.188,1052.04L782.041,1051.94L781.892,1051.85L781.743,1051.75L781.592,1051.66L781.44,1051.57L781.287,1051.49L781.133,1051.4L780.978,1051.32L780.822,1051.24L780.665,1051.16L780.506,1051.08L780.347,1051.01L780.186,1050.93L780.025,1050.86L779.862,1050.79L779.699,1050.72L779.534,1050.66L779.369,1050.59L779.202,1050.53L779.035,1050.47L778.866,1050.41L778.697,1050.36L778.527,1050.3L778.356,1050.25L778.184,1050.2L778.011,1050.15L777.838,1050.11L777.663,1050.06L777.488,1050.02L777.312,1049.98L777.135,1049.94L776.957,1049.91L776.778,1049.87L776.599,1049.84L776.419,1049.81L776.238,1049.79L776.056,1049.76L775.874,1049.74L775.691,1049.72L775.507,1049.7L775.323,1049.69L775.137,1049.68L774.951,1049.66L774.765,1049.66L774.578,1049.65L774.39,1049.65L774.201,1049.65L774.012,1049.65L773.824,1049.65L773.637,1049.66L773.45,1049.66L773.265,1049.68L773.079,1049.69L772.895,1049.7L772.711,1049.72L772.528,1049.74L772.346,1049.76L772.164,1049.79L771.983,1049.81L771.803,1049.84L771.624,1049.87L771.445,1049.91L771.267,1049.94L771.09,1049.98L770.914,1050.02L770.739,1050.06L770.564,1050.11L770.391,1050.15L770.218,1050.2L770.046,1050.25L769.875,1050.3L769.705,1050.36L769.535,1050.41L769.367,1050.47L769.2,1050.53L769.033,1050.59L768.868,1050.66L768.703,1050.72L768.54,1050.79L768.377,1050.86L768.216,1050.93L768.055,1051.01L767.896,1051.08L767.737,1051.16L767.58,1051.24L767.424,1051.32L767.269,1051.4L767.114,1051.49L766.962,1051.57L766.81,1051.66L766.659,1051.75L766.51,1051.85L766.361,1051.94L766.214,1052.04L766.068,1052.13L765.924,1052.23L765.78,1052.33L765.638,1052.43L765.497,1052.54L765.358,1052.64L765.219,1052.75L765.082,1052.86L764.947,1052.97L764.812,1053.08L764.68,1053.2L764.548,1053.31L764.418,1053.43L764.289,1053.55L764.162,1053.67L764.036,1053.79L763.912,1053.91L763.789,1054.04L763.667,1054.16L763.547,1054.29L763.429,1054.42L763.312,1054.55L763.197,1054.68L763.083,1054.81L762.971,1054.95L762.86,1055.08L762.751,1055.22L762.644,1055.36L762.538,1055.5L762.434,1055.64L762.332,1055.78L762.231,1055.92L762.132,1056.07L762.035,1056.21L761.939,1056.36L761.845,1056.51L761.753,1056.66L761.663,1056.81L761.574,1056.96L761.487,1057.11L761.402,1057.27L761.319,1057.42L761.238,1057.58L761.159,1057.74L761.081,1057.9L761.005,1058.06L760.932,1058.22L760.86,1058.38L760.79,1058.54L760.722,1058.7L760.656,1058.87L760.591,1059.03L760.529,1059.2L760.469,1059.37L760.411,1059.54L760.355,1059.7L760.301,1059.88L760.249,1060.05L760.198,1060.22L760.151,1060.39L760.105,1060.56L760.061,1060.74L760.019,1060.91L759.98,1061.09L759.942,1061.27L759.907,1061.44L759.874,1061.62L759.843,1061.8L759.814,1061.98L759.788,1062.16L759.763,1062.35L759.741,1062.53L759.722,1062.71L759.704,1062.89L759.689,1063.08L759.676,1063.27L759.665,1063.45L759.657,1063.64L759.651,1063.82L759.648,1064.01L759.646,1064.2L759.648,1064.39L759.651,1064.58L759.657,1064.77L759.665,1064.95L759.676,1065.14L759.689,1065.32L759.704,1065.51L759.722,1065.69L759.741,1065.87L759.763,1066.06L759.788,1066.24L759.814,1066.42L759.843,1066.6L759.874,1066.78L759.907,1066.96L759.942,1067.13L759.98,1067.31L760.019,1067.49L760.061,1067.66L760.105,1067.84L760.151,1068.01L760.198,1068.18L760.249,1068.36L760.301,1068.53L760.355,1068.7L760.411,1068.87L760.469,1069.04L760.529,1069.2L760.591,1069.37L760.656,1069.53L760.722,1069.7L760.79,1069.86L760.86,1070.03L760.932,1070.19L761.005,1070.35L761.081,1070.51L761.159,1070.66L761.238,1070.82L761.319,1070.98L761.402,1071.13L761.487,1071.29L761.574,1071.44L761.663,1071.59L761.753,1071.74L761.845,1071.89L761.939,1072.04L762.035,1072.19L762.132,1072.33L762.231,1072.48L762.332,1072.62L762.434,1072.76L762.538,1072.9L762.644,1073.04L762.751,1073.18L762.86,1073.32L762.971,1073.45L763.083,1073.59L763.197,1073.72L763.312,1073.85L763.429,1073.98L763.547,1074.11L763.667,1074.24L763.789,1074.37L763.912,1074.49L764.036,1074.61L764.162,1074.74L764.289,1074.85L764.418,1074.97L764.548,1075.09L764.68,1075.2L764.812,1075.32L765.082,1075.54L765.219,1075.65L765.358,1075.76L765.497,1075.86L765.638,1075.97L765.78,1076.07L766.068,1076.27L766.214,1076.37L766.361,1076.46L766.51,1076.56L766.659,1076.65L766.81,1076.74L766.962,1076.83L767.114,1076.91L767.269,1077L767.424,1077.08L767.58,1077.16L767.737,1077.24L768.055,1077.4L768.377,1077.54L768.703,1077.68L768.868,1077.75L769.033,1077.81L769.367,1077.93L769.705,1078.05L769.875,1078.1L770.046,1078.15L770.218,1078.2L770.564,1078.3L770.914,1078.38L771.09,1078.42L771.267,1078.46L771.445,1078.5L771.803,1078.56L771.983,1078.59L772.164,1078.61L772.346,1078.64L772.528,1078.66L772.711,1078.68L772.895,1078.7L773.079,1078.71L773.265,1078.73L773.45,1078.74L773.637,1078.75L774.012,1078.75L774.201,1078.76Z" style="fill:rgb(14,188,234);"/>
        </g>
        <g transform="matrix(0.942809,-0.942809,0.707107,0.707107,-1858.98,-208.181)">
            <rect x="895" y="1533" width="6" height="1" style="fill:rgb(14,188,234);"/>
        </g>
        <g transform="matrix(-1.1547,-0.666667,0.5,-0.866025,342.957,1968.28)">
            <rect x="895" y="1533" width="6" height="1" style="fill:rgb(14,188,234);"/>
        </g>
    </g>
</svg>
