<?xml version="1.0" standalone="no"?>
<!DOCTYPE svg PUBLIC "-//W3C//DTD SVG 1.1//EN" "http://www.w3.org/Graphics/SVG/1.1/DTD/svg11.dtd">
<svg width="100%" height="100%" viewBox="0 0 32 34" version="1.1" xmlns="http://www.w3.org/2000/svg" xmlns:xlink="http://www.w3.org/1999/xlink" xml:space="preserve" style="fill-rule:evenodd;clip-rule:evenodd;stroke-linejoin:round;stroke-miterlimit:1.41421;">
    <g transform="matrix(1.02058,1.11849e-17,1.11849e-17,0.97491,-844.682,-1298.65)">
        <path d="M854.09,1366.94C854.559,1366.94 854.803,1366.78 855.131,1366.45C855.459,1366.12 855.56,1365.73 855.56,1365.26L855.56,1333.76C855.56,1333.29 855.459,1332.89 855.131,1332.56C854.803,1332.23 854.559,1332.07 854.09,1332.07L831.59,1332.07C831.121,1332.07 830.723,1332.23 830.395,1332.56C830.066,1332.89 829.902,1333.29 829.902,1333.76L829.902,1335.09C829.902,1335.47 830.09,1335.66 830.465,1335.66C830.84,1335.66 831.027,1335.47 831.027,1335.09L831.027,1333.76C831.027,1333.38 831.197,1333.11 831.572,1333.11L836.484,1333.08L836.503,1365.94L831.563,1365.93C831.188,1365.93 831.027,1365.63 831.027,1365.26L831.027,1364.2C831.027,1363.83 830.84,1363.64 830.465,1363.64C830.09,1363.64 829.902,1363.83 829.902,1364.2L829.902,1365.26C829.902,1365.73 830.066,1366.12 830.395,1366.45C830.723,1366.78 831.121,1366.94 831.59,1366.94L854.09,1366.94ZM837.441,1333.09L854.097,1333.1C854.472,1333.1 854.58,1333.38 854.58,1333.76L854.58,1365.26C854.58,1365.63 854.5,1365.97 854.125,1365.97L837.931,1365.9L837.43,1365.91L837.441,1333.09ZM859.007,1363.93L859.007,1334.68C859.007,1334.31 858.892,1334.12 858.517,1334.12C858.142,1334.12 858.027,1334.31 858.027,1334.68L858.027,1363.93C858.027,1364.31 858.142,1364.5 858.517,1364.5C858.892,1364.5 859.007,1364.31 859.007,1363.93ZM828.215,1343.32L832.715,1343.32C833.09,1343.32 833.277,1343.13 833.277,1342.76C833.277,1342.38 833.09,1342.19 832.715,1342.19L828.215,1342.19C827.84,1342.19 827.652,1342.38 827.652,1342.76C827.652,1343.13 827.84,1343.32 828.215,1343.32ZM828.215,1338.82L832.715,1338.82C833.09,1338.82 833.277,1338.63 833.277,1338.26C833.277,1337.88 833.09,1337.69 832.715,1337.69L828.215,1337.69C827.84,1337.69 827.652,1337.88 827.652,1338.26C827.652,1338.63 827.84,1338.82 828.215,1338.82ZM828.215,1347.82L832.715,1347.82C833.09,1347.82 833.277,1347.63 833.277,1347.26C833.277,1346.88 833.09,1346.69 832.715,1346.69L828.215,1346.69C827.84,1346.69 827.652,1346.88 827.652,1347.26C827.652,1347.63 827.84,1347.82 828.215,1347.82ZM828.215,1356.82L832.715,1356.82C833.09,1356.82 833.277,1356.63 833.277,1356.26C833.277,1355.88 833.09,1355.69 832.715,1355.69L828.215,1355.69C827.84,1355.69 827.652,1355.88 827.652,1356.26C827.652,1356.63 827.84,1356.82 828.215,1356.82ZM828.215,1352.32L832.715,1352.32C833.09,1352.32 833.277,1352.13 833.277,1351.76C833.277,1351.38 833.09,1351.19 832.715,1351.19L828.215,1351.19C827.84,1351.19 827.652,1351.38 827.652,1351.76C827.652,1352.13 827.84,1352.32 828.215,1352.32ZM828.215,1361.32L832.715,1361.32C833.09,1361.32 833.277,1361.13 833.277,1360.76C833.277,1360.38 833.09,1360.19 832.715,1360.19L828.215,1360.19C827.84,1360.19 827.652,1360.38 827.652,1360.76C827.652,1361.13 827.84,1361.32 828.215,1361.32Z" style="fill:rgb(14,203,236);fill-rule:nonzero;"/>
    </g>
</svg>
