<?xml version="1.0" standalone="no"?>
<!DOCTYPE svg PUBLIC "-//W3C//DTD SVG 1.1//EN" "http://www.w3.org/Graphics/SVG/1.1/DTD/svg11.dtd">
<svg width="100%" height="100%" viewBox="0 0 35 35" version="1.1" xmlns="http://www.w3.org/2000/svg" xmlns:xlink="http://www.w3.org/1999/xlink" xml:space="preserve" style="fill-rule:evenodd;clip-rule:evenodd;stroke-linejoin:round;stroke-miterlimit:1.41421;">
    <g transform="matrix(1,0,0,1,-130.513,-45.9029)">
        <g transform="matrix(1.06061,3.11727e-17,3.24715e-17,0.972222,-799.639,-1160.62)">
            <path d="M910,1242.8C910,1241.81 909.261,1241 908.35,1241L878.65,1241C877.739,1241 877,1241.81 877,1242.8L877,1275.2C877,1276.19 877.739,1277 878.65,1277L908.35,1277C909.261,1277 910,1276.19 910,1275.2L910,1242.8Z" style="fill:white;"/>
            <path d="M878.65,1277L878.607,1277L878.565,1277L878.523,1277L878.481,1276.99L878.44,1276.99L878.399,1276.98L878.358,1276.97L878.318,1276.96L878.278,1276.95L878.238,1276.94L878.199,1276.93L878.16,1276.92L878.121,1276.9L878.083,1276.89L878.045,1276.88L878.008,1276.86L877.971,1276.84L877.935,1276.82L877.899,1276.8L877.864,1276.78L877.829,1276.76L877.795,1276.74L877.761,1276.72L877.728,1276.69L877.695,1276.67L877.663,1276.64L877.632,1276.62L877.601,1276.59L877.57,1276.56L877.541,1276.53L877.512,1276.5L877.484,1276.47L877.456,1276.44L877.429,1276.41L877.403,1276.38L877.377,1276.35L877.352,1276.31L877.328,1276.28L877.305,1276.24L877.282,1276.21L877.26,1276.17L877.239,1276.13L877.219,1276.1L877.199,1276.06L877.181,1276.02L877.163,1275.98L877.146,1275.94L877.13,1275.9L877.115,1275.86L877.1,1275.82L877.087,1275.78L877.074,1275.74L877.063,1275.69L877.052,1275.65L877.042,1275.61L877.034,1275.56L877.026,1275.52L877.019,1275.47L877.013,1275.43L877.009,1275.38L877.005,1275.34L877.002,1275.29L877.001,1275.25L877,1275.2L877,1242.8L877.001,1242.75L877.002,1242.71L877.005,1242.66L877.009,1242.62L877.013,1242.57L877.019,1242.53L877.026,1242.48L877.034,1242.44L877.042,1242.39L877.052,1242.35L877.063,1242.31L877.074,1242.27L877.087,1242.22L877.1,1242.18L877.115,1242.14L877.13,1242.1L877.146,1242.06L877.163,1242.02L877.181,1241.98L877.199,1241.94L877.219,1241.9L877.239,1241.87L877.26,1241.83L877.282,1241.79L877.305,1241.76L877.328,1241.72L877.352,1241.69L877.377,1241.65L877.403,1241.62L877.429,1241.59L877.456,1241.56L877.484,1241.53L877.512,1241.5L877.541,1241.47L877.57,1241.44L877.601,1241.41L877.632,1241.38L877.663,1241.36L877.695,1241.33L877.728,1241.31L877.761,1241.28L877.795,1241.26L877.829,1241.24L877.864,1241.22L877.899,1241.2L877.935,1241.18L877.971,1241.16L878.008,1241.14L878.045,1241.12L878.083,1241.11L878.121,1241.1L878.16,1241.08L878.199,1241.07L878.238,1241.06L878.278,1241.05L878.318,1241.04L878.358,1241.03L878.399,1241.02L878.44,1241.01L878.523,1241.01L878.565,1241L908.435,1241L908.477,1241.01L908.56,1241.01L908.642,1241.03L908.762,1241.06L908.84,1241.08L908.879,1241.1L908.955,1241.12L909.029,1241.16L909.101,1241.2L909.171,1241.24L909.239,1241.28L909.272,1241.31L909.305,1241.33L909.337,1241.36L909.368,1241.38L909.43,1241.44L909.488,1241.5L909.544,1241.56L909.571,1241.59L909.623,1241.65L909.648,1241.69L909.672,1241.72L909.695,1241.76L909.718,1241.79L909.74,1241.83L909.761,1241.87L909.781,1241.9L909.801,1241.94L909.837,1242.02L909.854,1242.06L909.87,1242.1L909.9,1242.18L909.913,1242.22L909.926,1242.27L909.948,1242.35L909.958,1242.39L909.966,1242.44L909.974,1242.48L909.981,1242.53L909.987,1242.57L909.991,1242.62L909.995,1242.66L909.998,1242.71L909.999,1242.75L910,1242.8L910,1275.2L909.999,1275.25L909.998,1275.29L909.995,1275.34L909.991,1275.38L909.987,1275.43L909.981,1275.47L909.974,1275.52L909.966,1275.56L909.958,1275.61L909.948,1275.65L909.937,1275.69L909.926,1275.74L909.913,1275.78L909.9,1275.82L909.885,1275.86L909.87,1275.9L909.854,1275.94L909.837,1275.98L909.819,1276.02L909.801,1276.06L909.781,1276.1L909.761,1276.13L909.74,1276.17L909.718,1276.21L909.695,1276.24L909.672,1276.28L909.648,1276.31L909.623,1276.35L909.597,1276.38L909.571,1276.41L909.544,1276.44L909.516,1276.47L909.488,1276.5L909.459,1276.53L909.43,1276.56L909.399,1276.59L909.368,1276.62L909.337,1276.64L909.305,1276.67L909.272,1276.69L909.239,1276.72L909.205,1276.74L909.171,1276.76L909.136,1276.78L909.101,1276.8L909.065,1276.82L909.029,1276.84L908.992,1276.86L908.955,1276.88L908.917,1276.89L908.879,1276.9L908.84,1276.92L908.801,1276.93L908.762,1276.94L908.722,1276.95L908.682,1276.96L908.642,1276.97L908.601,1276.98L908.56,1276.99L908.519,1276.99L908.477,1277L908.435,1277L908.393,1277L908.35,1277L878.65,1277ZM878.656,1275.97L908.423,1275.97L908.441,1275.96L908.493,1275.96L908.51,1275.95L908.527,1275.95L908.544,1275.94L908.56,1275.94L908.576,1275.93L908.593,1275.92L908.609,1275.92L908.624,1275.91L908.64,1275.9L908.656,1275.9L908.671,1275.89L908.686,1275.88L908.701,1275.87L908.716,1275.86L908.73,1275.85L908.744,1275.84L908.758,1275.83L908.772,1275.82L908.786,1275.81L908.799,1275.8L908.812,1275.78L908.825,1275.77L908.837,1275.76L908.85,1275.75L908.862,1275.73L908.873,1275.72L908.885,1275.7L908.896,1275.69L908.907,1275.67L908.917,1275.66L908.927,1275.64L908.937,1275.63L908.946,1275.62L908.955,1275.6L908.964,1275.58L908.972,1275.57L908.98,1275.55L908.988,1275.53L908.995,1275.52L909.002,1275.5L909.008,1275.48L909.014,1275.46L909.02,1275.45L909.025,1275.43L909.03,1275.41L909.035,1275.39L909.039,1275.38L909.043,1275.36L909.046,1275.34L909.049,1275.32L909.051,1275.3L909.053,1275.28L909.055,1275.26L909.056,1275.24L909.057,1275.22L909.057,1275.19L909.057,1242.81L909.057,1242.78L909.056,1242.76L909.055,1242.74L909.053,1242.72L909.051,1242.7L909.049,1242.68L909.046,1242.66L909.043,1242.64L909.039,1242.62L909.035,1242.61L909.03,1242.59L909.025,1242.57L909.02,1242.55L909.014,1242.54L909.008,1242.52L909.002,1242.5L908.995,1242.48L908.988,1242.47L908.98,1242.45L908.972,1242.43L908.964,1242.42L908.955,1242.4L908.946,1242.38L908.937,1242.37L908.927,1242.36L908.917,1242.34L908.907,1242.33L908.896,1242.31L908.885,1242.3L908.873,1242.28L908.862,1242.27L908.85,1242.26L908.837,1242.24L908.825,1242.23L908.812,1242.22L908.799,1242.2L908.786,1242.19L908.772,1242.18L908.758,1242.17L908.744,1242.16L908.73,1242.15L908.716,1242.14L908.701,1242.13L908.686,1242.12L908.671,1242.11L908.656,1242.1L908.64,1242.1L908.624,1242.09L908.609,1242.08L908.593,1242.08L908.577,1242.07L908.56,1242.06L908.544,1242.06L908.527,1242.05L908.51,1242.05L908.493,1242.04L908.476,1242.04L908.459,1242.04L908.441,1242.04L908.423,1242.03L908.405,1242.03L908.387,1242.03L908.369,1242.03L908.344,1242.03L878.656,1242.03L878.631,1242.03L878.613,1242.03L878.595,1242.03L878.577,1242.03L878.559,1242.04L878.541,1242.04L878.524,1242.04L878.507,1242.04L878.49,1242.05L878.473,1242.05L878.456,1242.06L878.44,1242.06L878.423,1242.07L878.407,1242.08L878.391,1242.08L878.376,1242.09L878.36,1242.1L878.344,1242.1L878.329,1242.11L878.314,1242.12L878.299,1242.13L878.284,1242.14L878.27,1242.15L878.256,1242.16L878.242,1242.17L878.228,1242.18L878.214,1242.19L878.201,1242.2L878.188,1242.22L878.175,1242.23L878.163,1242.24L878.15,1242.26L878.138,1242.27L878.127,1242.28L878.115,1242.3L878.104,1242.31L878.093,1242.33L878.083,1242.34L878.073,1242.36L878.063,1242.37L878.054,1242.38L878.045,1242.4L878.036,1242.42L878.028,1242.43L878.02,1242.45L878.012,1242.47L878.005,1242.48L877.998,1242.5L877.992,1242.52L877.986,1242.54L877.98,1242.55L877.975,1242.57L877.97,1242.59L877.965,1242.61L877.961,1242.62L877.957,1242.64L877.954,1242.66L877.951,1242.68L877.949,1242.7L877.947,1242.72L877.945,1242.74L877.944,1242.76L877.943,1242.78L877.943,1275.22L877.945,1275.26L877.951,1275.32L877.957,1275.36L877.961,1275.38L877.965,1275.39L877.98,1275.45L877.986,1275.46L877.998,1275.5L878.005,1275.52L878.012,1275.53L878.028,1275.57L878.036,1275.58L878.054,1275.62L878.063,1275.63L878.073,1275.64L878.083,1275.66L878.093,1275.67L878.104,1275.69L878.115,1275.7L878.127,1275.72L878.138,1275.73L878.15,1275.75L878.163,1275.76L878.175,1275.77L878.188,1275.78L878.201,1275.8L878.214,1275.81L878.284,1275.86L878.344,1275.9L878.36,1275.9L878.376,1275.91L878.391,1275.92L878.407,1275.92L878.424,1275.93L878.44,1275.94L878.456,1275.94L878.473,1275.95L878.49,1275.95L878.507,1275.96L878.559,1275.96L878.577,1275.97L878.656,1275.97Z" style="fill:rgb(84,173,39);"/>
        </g>
        <g transform="matrix(0.862496,-1.21322e-16,-1.21322e-16,1.35783,19.2426,-27.5134)">
            <rect x="140.009" y="74.025" width="18.551" height="0.736" style="fill:rgb(135,130,130);"/>
        </g>
        <g id="Forma 1" transform="matrix(0.0193197,-6.20275e-20,-6.16138e-20,0.0194424,150.99,54.0358)">
            <path d="M432.5,0.5C481.104,-15.373 535.992,53.712 512.5,80.5C501.996,92.478 481.011,124.444 471.473,128.5L439.473,160.5L352.5,74.79C352.5,74.79 415.301,6.117 432.5,0.5ZM57.527,368.5L0.5,512.5L144.5,454.21L440.5,158.21L353.527,72.5L57.527,368.5ZM358.289,182.289L134.289,406.289L106.711,378.711L330.711,154.711L358.289,182.289Z" style="fill:rgb(84,173,39);"/>
        </g>
        <g transform="matrix(0.893462,2.24227e-17,2.39918e-17,0.817968,68.4124,12.2163)">
            <path d="M79.005,62.085L79.005,52.305L87.959,52.305L87.959,62.085L79.005,62.085ZM80.124,60.863L86.839,60.863L86.839,53.527L80.124,53.527L80.124,60.863Z" style="fill:rgb(84,173,39);"/>
        </g>
        <g transform="matrix(2.43614,1.73344e-16,1.73344e-16,1.72841,-202.342,-56.115)">
            <path d="M140.188,75.292L142.241,71.82L144.293,75.292L140.188,75.292ZM141.065,74.713L143.417,74.713L142.241,72.724L141.065,74.713Z" style="fill:rgb(84,173,39);"/>
        </g>
        <g transform="matrix(2.43614,1.73344e-16,1.73344e-16,1.72841,-193.532,-56.1401)">
            <path d="M144.293,75.292L140.188,75.292L142.241,71.82L144.293,75.292ZM141.065,74.713L143.417,74.713L142.241,72.724L141.065,74.713Z" style="fill:rgb(84,173,39);"/>
        </g>
    </g>
</svg>
