<?xml version="1.0" standalone="no"?>
<!DOCTYPE svg PUBLIC "-//W3C//DTD SVG 1.1//EN" "http://www.w3.org/Graphics/SVG/1.1/DTD/svg11.dtd">
<svg width="100%" height="100%" viewBox="0 0 33 38" version="1.1" xmlns="http://www.w3.org/2000/svg" xmlns:xlink="http://www.w3.org/1999/xlink" xml:space="preserve" style="fill-rule:evenodd;clip-rule:evenodd;stroke-linejoin:round;stroke-miterlimit:1.41421;">
    <g transform="matrix(1,0,0,1,-533,-430)">
        <g transform="matrix(1.11199,2.4992e-17,2.4992e-17,1.00995,491.873,427.777)">
            <path d="M39.953,39.827L39.876,39.826L39.8,39.823L39.725,39.818L39.65,39.81L39.575,39.801L39.501,39.79L39.428,39.776L39.355,39.761L39.283,39.744L39.212,39.724L39.141,39.703L39.071,39.68L39.002,39.655L38.933,39.629L38.865,39.6L38.798,39.57L38.732,39.538L38.667,39.505L38.602,39.47L38.539,39.433L38.476,39.394L38.415,39.354L38.354,39.312L38.294,39.269L38.235,39.224L38.178,39.178L38.121,39.13L38.066,39.081L38.011,39.03L37.958,38.978L37.906,38.925L37.855,38.87L37.805,38.814L37.757,38.756L37.709,38.698L37.663,38.638L37.619,38.577L37.575,38.514L37.533,38.451L37.492,38.386L37.453,38.32L37.415,38.254L37.379,38.186L37.344,38.117L37.31,38.047L37.278,37.976L37.248,37.904L37.219,37.831L37.191,37.757L37.165,37.683L37.141,37.607L37.119,37.531L37.098,37.454L37.079,37.376L37.061,37.297L37.046,37.218L37.032,37.138L37.02,37.057L37.009,36.976L37.001,36.894L36.994,36.811L36.989,36.728L36.986,36.644L36.985,36.56L36.985,8.44L36.986,8.355L36.989,8.271L36.994,8.188L37.001,8.106L37.009,8.024L37.02,7.942L37.032,7.861L37.046,7.781L37.061,7.702L37.079,7.623L37.098,7.545L37.119,7.468L37.141,7.392L37.165,7.317L37.191,7.242L37.219,7.168L37.248,7.095L37.278,7.023L37.31,6.953L37.344,6.883L37.379,6.814L37.415,6.746L37.453,6.679L37.492,6.613L37.533,6.549L37.575,6.485L37.619,6.423L37.663,6.362L37.709,6.302L37.757,6.243L37.805,6.186L37.855,6.13L37.906,6.075L37.958,6.021L38.011,5.969L38.066,5.919L38.121,5.869L38.178,5.822L38.235,5.775L38.294,5.73L38.354,5.687L38.415,5.645L38.476,5.605L38.539,5.567L38.602,5.53L38.667,5.494L38.732,5.461L38.798,5.429L38.865,5.399L38.933,5.37L39.002,5.344L39.071,5.319L39.141,5.296L39.212,5.275L39.283,5.256L39.355,5.238L39.428,5.223L39.501,5.21L39.575,5.198L39.65,5.189L39.725,5.182L39.8,5.176L39.876,5.173L39.953,5.172L63.694,5.172L63.771,5.173L63.847,5.176L63.922,5.182L63.998,5.189L64.072,5.198L64.146,5.21L64.219,5.223L64.292,5.238L64.364,5.256L64.436,5.275L64.506,5.296L64.576,5.319L64.646,5.344L64.714,5.37L64.782,5.399L64.849,5.429L64.915,5.461L64.98,5.494L65.045,5.53L65.108,5.567L65.171,5.605L65.233,5.645L65.293,5.687L65.353,5.73L65.412,5.775L65.526,5.869L65.582,5.919L65.636,5.969L65.689,6.021L65.741,6.075L65.792,6.13L65.842,6.186L65.891,6.243L65.938,6.302L65.984,6.362L66.029,6.423L66.072,6.485L66.114,6.549L66.155,6.613L66.194,6.679L66.232,6.746L66.269,6.814L66.304,6.883L66.337,6.953L66.369,7.023L66.4,7.095L66.429,7.168L66.456,7.242L66.482,7.317L66.506,7.392L66.528,7.468L66.549,7.545L66.568,7.623L66.586,7.702L66.602,7.781L66.616,7.861L66.628,7.942L66.638,8.024L66.647,8.106L66.653,8.188L66.658,8.271L66.661,8.355L66.662,8.44L66.662,36.56L66.661,36.644L66.658,36.728L66.653,36.811L66.647,36.894L66.638,36.976L66.628,37.057L66.616,37.138L66.602,37.218L66.586,37.297L66.568,37.376L66.549,37.454L66.528,37.531L66.506,37.607L66.482,37.683L66.456,37.757L66.429,37.831L66.4,37.904L66.369,37.976L66.337,38.047L66.304,38.117L66.269,38.186L66.232,38.254L66.194,38.32L66.155,38.386L66.114,38.451L66.072,38.514L66.029,38.577L65.984,38.638L65.938,38.698L65.891,38.756L65.842,38.814L65.792,38.87L65.741,38.925L65.689,38.978L65.636,39.03L65.582,39.081L65.526,39.13L65.469,39.178L65.412,39.224L65.353,39.269L65.293,39.312L65.233,39.354L65.171,39.394L65.108,39.433L65.045,39.47L64.98,39.505L64.915,39.538L64.849,39.57L64.782,39.6L64.714,39.629L64.646,39.655L64.576,39.68L64.506,39.703L64.436,39.724L64.364,39.744L64.292,39.761L64.219,39.776L64.146,39.79L64.072,39.801L63.998,39.81L63.922,39.818L63.847,39.823L63.771,39.826L63.694,39.827L39.953,39.827ZM39.958,38.837L63.689,38.837L63.748,38.836L63.801,38.834L63.854,38.83L63.907,38.825L63.959,38.819L64.01,38.811L64.061,38.801L64.112,38.791L64.162,38.779L64.211,38.765L64.26,38.751L64.309,38.735L64.357,38.718L64.405,38.699L64.452,38.679L64.498,38.658L64.544,38.636L64.59,38.613L64.635,38.588L64.679,38.563L64.722,38.536L64.765,38.508L64.808,38.479L64.849,38.449L64.89,38.417L64.931,38.385L64.97,38.351L65.009,38.317L65.047,38.282L65.084,38.245L65.121,38.208L65.156,38.17L65.191,38.13L65.225,38.09L65.258,38.049L65.29,38.007L65.322,37.965L65.352,37.921L65.381,37.877L65.41,37.832L65.437,37.786L65.464,37.739L65.489,37.692L65.513,37.644L65.537,37.595L65.559,37.546L65.58,37.496L65.6,37.445L65.619,37.394L65.637,37.342L65.654,37.29L65.67,37.237L65.684,37.183L65.697,37.129L65.71,37.075L65.721,37.019L65.73,36.964L65.739,36.907L65.746,36.851L65.752,36.794L65.757,36.736L65.76,36.677L65.762,36.619L65.763,36.554L65.763,8.446L65.762,8.38L65.76,8.322L65.757,8.264L65.752,8.206L65.746,8.149L65.739,8.092L65.73,8.036L65.721,7.98L65.71,7.925L65.697,7.87L65.684,7.816L65.67,7.763L65.654,7.71L65.637,7.657L65.619,7.605L65.6,7.554L65.58,7.503L65.559,7.453L65.537,7.404L65.513,7.355L65.489,7.307L65.464,7.26L65.437,7.213L65.41,7.168L65.381,7.123L65.352,7.078L65.322,7.035L65.29,6.992L65.258,6.95L65.225,6.909L65.191,6.869L65.156,6.83L65.121,6.791L65.084,6.754L65.047,6.718L65.009,6.682L64.97,6.648L64.931,6.615L64.89,6.582L64.849,6.551L64.808,6.521L64.765,6.491L64.722,6.463L64.679,6.437L64.635,6.411L64.59,6.386L64.544,6.363L64.498,6.341L64.452,6.32L64.405,6.3L64.357,6.282L64.309,6.265L64.26,6.249L64.211,6.234L64.162,6.221L64.112,6.209L64.061,6.198L64.01,6.189L63.959,6.181L63.907,6.174L63.854,6.169L63.801,6.165L63.748,6.163L63.689,6.162L39.959,6.162L39.899,6.163L39.846,6.165L39.793,6.169L39.741,6.174L39.689,6.181L39.637,6.189L39.586,6.198L39.536,6.209L39.486,6.221L39.436,6.234L39.387,6.249L39.338,6.265L39.29,6.282L39.243,6.3L39.195,6.32L39.149,6.341L39.103,6.363L39.057,6.386L39.013,6.411L38.968,6.437L38.925,6.463L38.882,6.491L38.839,6.521L38.798,6.551L38.757,6.582L38.716,6.615L38.677,6.648L38.638,6.682L38.6,6.718L38.563,6.754L38.526,6.791L38.491,6.83L38.456,6.869L38.422,6.909L38.389,6.95L38.357,6.992L38.326,7.035L38.295,7.078L38.266,7.123L38.238,7.168L38.21,7.213L38.184,7.26L38.158,7.307L38.134,7.355L38.111,7.404L38.088,7.453L38.067,7.503L38.047,7.554L38.028,7.605L38.01,7.657L37.993,7.71L37.978,7.763L37.963,7.816L37.95,7.87L37.938,7.925L37.927,7.98L37.917,8.036L37.909,8.092L37.901,8.149L37.895,8.206L37.891,8.264L37.887,8.322L37.885,8.38L37.885,36.619L37.887,36.677L37.891,36.736L37.895,36.794L37.901,36.851L37.909,36.907L37.917,36.964L37.927,37.019L37.938,37.075L37.95,37.129L37.963,37.183L37.978,37.237L37.993,37.29L38.01,37.342L38.028,37.394L38.047,37.445L38.067,37.496L38.088,37.546L38.134,37.644L38.158,37.692L38.21,37.786L38.238,37.832L38.266,37.877L38.295,37.921L38.326,37.965L38.357,38.007L38.389,38.049L38.422,38.09L38.456,38.13L38.491,38.17L38.526,38.208L38.6,38.282L38.638,38.317L38.716,38.385L38.798,38.449L38.839,38.479L38.882,38.508L38.925,38.536L38.968,38.563L39.012,38.588L39.057,38.613L39.103,38.636L39.149,38.658L39.195,38.679L39.243,38.699L39.29,38.718L39.338,38.735L39.387,38.751L39.485,38.779L39.536,38.791L39.586,38.801L39.637,38.811L39.689,38.819L39.741,38.825L39.793,38.83L39.846,38.834L39.899,38.836L39.958,38.837Z" style="fill:rgb(14,188,234);"/>
        </g>
        <g transform="matrix(1.21873,6.79571e-17,6.79571e-17,0.941278,480.974,428.034)">
            <rect x="46.791" y="2.089" width="0.821" height="7.437" style="fill:rgb(14,188,234);"/>
        </g>
        <g transform="matrix(1.21873,6.79571e-17,6.79571e-17,0.941278,484.974,428.034)">
            <rect x="46.791" y="2.089" width="0.821" height="7.437" style="fill:rgb(14,188,234);"/>
        </g>
        <g transform="matrix(1.21873,6.79571e-17,6.79571e-17,0.941278,498.974,428.034)">
            <rect x="46.791" y="2.089" width="0.821" height="7.437" style="fill:rgb(14,188,234);"/>
        </g>
        <g transform="matrix(1.21873,6.79571e-17,6.79571e-17,0.941278,502.974,428.034)">
            <rect x="46.791" y="2.089" width="0.821" height="7.437" style="fill:rgb(14,188,234);"/>
        </g>
        <g transform="matrix(0.95363,-1.13573e-17,-1.13573e-17,1,-335.481,-868.031)">
            <rect x="917" y="1312" width="22" height="1" style="fill:rgb(14,188,234);"/>
        </g>
        <g transform="matrix(0.95363,-1.13573e-17,-1.13573e-17,1,-335.481,-863)">
            <rect x="917" y="1312" width="22" height="1" style="fill:rgb(14,188,234);"/>
        </g>
        <g transform="matrix(0.844492,8.53508e-17,1.89748e-16,0.975782,502.642,426.664)">
            <rect x="43.028" y="27.987" width="24.843" height="1.025" style="fill:rgb(14,188,234);"/>
        </g>
        <g transform="matrix(0.844492,8.53508e-17,1.89748e-16,0.975782,502.642,431.664)">
            <rect x="43.028" y="27.987" width="24.843" height="1.025" style="fill:rgb(14,188,234);"/>
        </g>
    </g>
</svg>
