<?xml version="1.0" standalone="no"?>
<!DOCTYPE svg PUBLIC "-//W3C//DTD SVG 1.1//EN" "http://www.w3.org/Graphics/SVG/1.1/DTD/svg11.dtd">
<svg width="100%" height="100%" viewBox="0 0 33 35" version="1.1" xmlns="http://www.w3.org/2000/svg" xmlns:xlink="http://www.w3.org/1999/xlink" xml:space="preserve" style="fill-rule:evenodd;clip-rule:evenodd;stroke-linejoin:round;stroke-miterlimit:1.41421;">
    <g transform="matrix(1,0,0,1,0.00468437,-0.0193665)">
        <g transform="matrix(1,1.63285e-17,1.70088e-17,0.972222,-877.005,-1206.51)">
            <path d="M910,1243.38C910,1242.07 908.965,1241 907.69,1241L879.31,1241C878.035,1241 877,1242.07 877,1243.38L877,1274.62C877,1275.93 878.035,1277 879.31,1277L907.69,1277C908.965,1277 910,1275.93 910,1274.62L910,1243.38Z" style="fill:white;"/>
            <path d="M879.31,1277L879.25,1277L879.191,1277L879.132,1276.99L879.074,1276.99L879.016,1276.98L878.958,1276.97L878.901,1276.96L878.845,1276.95L878.789,1276.94L878.733,1276.92L878.678,1276.91L878.623,1276.89L878.569,1276.88L878.516,1276.86L878.463,1276.84L878.411,1276.81L878.36,1276.79L878.309,1276.77L878.259,1276.74L878.209,1276.71L878.161,1276.68L878.113,1276.66L878.065,1276.62L878.019,1276.59L877.973,1276.56L877.928,1276.53L877.884,1276.49L877.841,1276.46L877.799,1276.42L877.757,1276.38L877.717,1276.34L877.677,1276.3L877.638,1276.26L877.6,1276.22L877.564,1276.18L877.528,1276.13L877.493,1276.09L877.459,1276.05L877.426,1276L877.395,1275.95L877.364,1275.9L877.335,1275.86L877.306,1275.81L877.279,1275.76L877.253,1275.7L877.228,1275.65L877.204,1275.6L877.182,1275.55L877.16,1275.5L877.14,1275.44L877.121,1275.39L877.104,1275.33L877.088,1275.27L877.073,1275.22L877.059,1275.16L877.047,1275.1L877.036,1275.04L877.027,1274.99L877.019,1274.93L877.012,1274.87L877.007,1274.81L877.003,1274.75L877.001,1274.68L877,1274.62L877,1243.38L877.001,1243.32L877.003,1243.25L877.007,1243.19L877.012,1243.13L877.019,1243.07L877.027,1243.01L877.036,1242.96L877.047,1242.9L877.059,1242.84L877.073,1242.78L877.088,1242.73L877.104,1242.67L877.121,1242.61L877.14,1242.56L877.16,1242.51L877.182,1242.45L877.204,1242.4L877.228,1242.35L877.253,1242.3L877.279,1242.24L877.306,1242.19L877.335,1242.14L877.364,1242.1L877.395,1242.05L877.426,1242L877.459,1241.95L877.493,1241.91L877.528,1241.87L877.564,1241.82L877.6,1241.78L877.638,1241.74L877.677,1241.7L877.717,1241.66L877.757,1241.62L877.799,1241.58L877.841,1241.54L877.884,1241.51L877.928,1241.47L877.973,1241.44L878.019,1241.41L878.065,1241.38L878.113,1241.34L878.161,1241.32L878.209,1241.29L878.259,1241.26L878.309,1241.23L878.36,1241.21L878.411,1241.19L878.463,1241.16L878.516,1241.14L878.569,1241.12L878.623,1241.11L878.678,1241.09L878.733,1241.08L878.789,1241.06L878.845,1241.05L878.901,1241.04L878.958,1241.03L879.016,1241.02L879.074,1241.01L879.132,1241.01L879.191,1241L907.809,1241L907.868,1241.01L907.926,1241.01L908.042,1241.03L908.099,1241.04L908.211,1241.06L908.267,1241.08L908.322,1241.09L908.377,1241.11L908.431,1241.12L908.537,1241.16L908.589,1241.19L908.691,1241.23L908.791,1241.29L908.839,1241.32L908.887,1241.34L908.935,1241.38L909.027,1241.44L909.072,1241.47L909.116,1241.51L909.159,1241.54L909.243,1241.62L909.323,1241.7L909.362,1241.74L909.4,1241.78L909.436,1241.82L909.472,1241.87L909.507,1241.91L909.541,1241.95L909.574,1242L909.636,1242.1L909.665,1242.14L909.694,1242.19L909.721,1242.24L909.747,1242.3L909.772,1242.35L909.796,1242.4L909.818,1242.45L909.84,1242.51L909.86,1242.56L909.879,1242.61L909.896,1242.67L909.912,1242.73L909.927,1242.78L909.941,1242.84L909.953,1242.9L909.964,1242.96L909.973,1243.01L909.981,1243.07L909.988,1243.13L909.993,1243.19L909.997,1243.25L909.999,1243.32L910,1243.38L910,1274.62L909.999,1274.68L909.997,1274.75L909.993,1274.81L909.988,1274.87L909.981,1274.93L909.973,1274.99L909.964,1275.04L909.953,1275.1L909.941,1275.16L909.927,1275.22L909.912,1275.27L909.896,1275.33L909.879,1275.39L909.86,1275.44L909.84,1275.5L909.818,1275.55L909.796,1275.6L909.772,1275.65L909.747,1275.7L909.721,1275.76L909.694,1275.81L909.665,1275.86L909.636,1275.9L909.605,1275.95L909.574,1276L909.541,1276.05L909.507,1276.09L909.472,1276.13L909.436,1276.18L909.4,1276.22L909.362,1276.26L909.323,1276.3L909.283,1276.34L909.243,1276.38L909.201,1276.42L909.159,1276.46L909.116,1276.49L909.072,1276.53L909.027,1276.56L908.981,1276.59L908.935,1276.62L908.887,1276.66L908.839,1276.68L908.791,1276.71L908.741,1276.74L908.691,1276.77L908.64,1276.79L908.589,1276.81L908.537,1276.84L908.484,1276.86L908.431,1276.88L908.377,1276.89L908.322,1276.91L908.267,1276.92L908.211,1276.94L908.155,1276.95L908.099,1276.96L908.042,1276.97L907.984,1276.98L907.926,1276.99L907.868,1276.99L907.809,1277L907.75,1277L907.69,1277L879.31,1277ZM879.316,1275.97L907.792,1275.97L907.825,1275.96L907.89,1275.96L907.923,1275.95L907.955,1275.94L907.986,1275.94L908.018,1275.93L908.049,1275.92L908.079,1275.91L908.11,1275.9L908.14,1275.89L908.17,1275.88L908.199,1275.87L908.228,1275.85L908.257,1275.84L908.285,1275.82L908.313,1275.81L908.341,1275.79L908.368,1275.78L908.395,1275.76L908.421,1275.74L908.447,1275.72L908.473,1275.7L908.498,1275.68L908.522,1275.66L908.547,1275.64L908.57,1275.62L908.593,1275.6L908.616,1275.58L908.638,1275.55L908.66,1275.53L908.681,1275.51L908.701,1275.48L908.721,1275.45L908.74,1275.43L908.759,1275.4L908.777,1275.38L908.794,1275.35L908.811,1275.32L908.827,1275.29L908.842,1275.27L908.857,1275.24L908.871,1275.21L908.885,1275.18L908.897,1275.15L908.909,1275.12L908.921,1275.09L908.931,1275.06L908.941,1275.02L908.95,1274.99L908.959,1274.96L908.966,1274.93L908.973,1274.9L908.979,1274.86L908.985,1274.83L908.989,1274.8L908.993,1274.76L908.996,1274.73L908.998,1274.69L908.999,1274.66L909,1274.62L909,1243.38L908.999,1243.34L908.998,1243.31L908.996,1243.27L908.993,1243.24L908.989,1243.2L908.985,1243.17L908.979,1243.14L908.973,1243.1L908.966,1243.07L908.959,1243.04L908.95,1243.01L908.941,1242.98L908.931,1242.94L908.921,1242.91L908.909,1242.88L908.897,1242.85L908.885,1242.82L908.871,1242.79L908.857,1242.76L908.842,1242.74L908.827,1242.71L908.811,1242.68L908.794,1242.65L908.777,1242.62L908.759,1242.6L908.74,1242.57L908.721,1242.55L908.701,1242.52L908.681,1242.5L908.66,1242.47L908.638,1242.45L908.616,1242.42L908.593,1242.4L908.57,1242.38L908.547,1242.36L908.522,1242.34L908.498,1242.32L908.473,1242.3L908.447,1242.28L908.421,1242.26L908.395,1242.24L908.368,1242.22L908.341,1242.21L908.313,1242.19L908.285,1242.18L908.257,1242.16L908.228,1242.15L908.199,1242.13L908.17,1242.12L908.14,1242.11L908.11,1242.1L908.079,1242.09L908.049,1242.08L908.018,1242.07L907.986,1242.06L907.955,1242.06L907.923,1242.05L907.89,1242.04L907.858,1242.04L907.825,1242.04L907.792,1242.03L907.758,1242.03L907.724,1242.03L907.684,1242.03L879.316,1242.03L879.276,1242.03L879.242,1242.03L879.208,1242.03L879.175,1242.04L879.142,1242.04L879.11,1242.04L879.077,1242.05L879.045,1242.06L879.014,1242.06L878.982,1242.07L878.951,1242.08L878.921,1242.09L878.89,1242.1L878.86,1242.11L878.83,1242.12L878.801,1242.13L878.772,1242.15L878.743,1242.16L878.715,1242.18L878.687,1242.19L878.659,1242.21L878.632,1242.22L878.605,1242.24L878.579,1242.26L878.553,1242.28L878.527,1242.3L878.502,1242.32L878.478,1242.34L878.453,1242.36L878.43,1242.38L878.407,1242.4L878.384,1242.42L878.362,1242.45L878.34,1242.47L878.319,1242.5L878.299,1242.52L878.279,1242.55L878.26,1242.57L878.241,1242.6L878.223,1242.62L878.206,1242.65L878.189,1242.68L878.173,1242.71L878.158,1242.74L878.143,1242.76L878.129,1242.79L878.115,1242.82L878.103,1242.85L878.091,1242.88L878.079,1242.91L878.069,1242.94L878.059,1242.98L878.05,1243.01L878.041,1243.04L878.034,1243.07L878.027,1243.1L878.021,1243.14L878.015,1243.17L878.011,1243.2L878.007,1243.24L878.004,1243.27L878.002,1243.31L878.001,1243.34L878,1243.38L878,1274.62L878.001,1274.66L878.002,1274.69L878.004,1274.73L878.011,1274.8L878.015,1274.83L878.021,1274.86L878.027,1274.9L878.041,1274.96L878.059,1275.02L878.069,1275.06L878.079,1275.09L878.115,1275.18L878.143,1275.24L878.158,1275.27L878.173,1275.29L878.189,1275.32L878.223,1275.38L878.241,1275.4L878.26,1275.43L878.279,1275.45L878.319,1275.51L878.34,1275.53L878.362,1275.55L878.384,1275.58L878.453,1275.64L878.478,1275.66L878.502,1275.68L878.527,1275.7L878.605,1275.76L878.632,1275.78L878.659,1275.79L878.687,1275.81L878.715,1275.82L878.743,1275.84L878.772,1275.85L878.801,1275.87L878.83,1275.88L878.89,1275.9L878.921,1275.91L878.951,1275.92L878.982,1275.93L879.014,1275.94L879.045,1275.94L879.077,1275.95L879.11,1275.96L879.175,1275.96L879.208,1275.97L879.316,1275.97Z" style="fill:rgb(99,175,240);"/>
        </g>
        <g transform="matrix(0.772727,-5.56658e-17,-5.56658e-17,1,-697.572,-1304.04)">
            <rect x="917" y="1312" width="22" height="1" style="fill:rgb(99,175,240);"/>
        </g>
        <g transform="matrix(1.25,-1.02054e-16,-1.02054e-16,1.66667,-1108.48,-2310.68)">
            <rect x="890" y="1390" width="4" height="3" style="fill:white;"/>
            <path d="M890,1393L890,1390L894,1390L894,1393L890,1393ZM890.8,1392.4L893.2,1392.4L893.2,1390.6L890.8,1390.6L890.8,1392.4Z" style="fill:rgb(99,175,240);"/>
        </g>
        <g transform="matrix(1.25,-1.02054e-16,-1.02054e-16,1.66667,-1108.48,-2300.7)">
            <rect x="890" y="1390" width="4" height="3" style="fill:white;"/>
            <path d="M890,1393L890,1390L894,1390L894,1393L890,1393ZM890.8,1392.4L893.2,1392.4L893.2,1390.6L890.8,1390.6L890.8,1392.4Z" style="fill:rgb(99,175,240);"/>
        </g>
        <g transform="matrix(1.25,-1.02054e-16,-1.02054e-16,1.66667,-1108.48,-2291.68)">
            <rect x="890" y="1390" width="4" height="3" style="fill:white;"/>
            <path d="M890,1393L890,1390L894,1390L894,1393L890,1393ZM890.8,1392.4L893.2,1392.4L893.2,1390.6L890.8,1390.6L890.8,1392.4Z" style="fill:rgb(99,175,240);"/>
        </g>
        <g transform="matrix(0.772727,-5.56658e-17,-5.56658e-17,1,-697.571,-1294.04)">
            <rect x="917" y="1312" width="22" height="1" style="fill:rgb(99,175,240);"/>
        </g>
        <g transform="matrix(0.238241,-0.132745,0.537098,0.889399,-917.117,-1037.18)">
            <rect x="917" y="1312" width="22" height="1" style="fill:rgb(99,175,240);"/>
        </g>
        <g transform="matrix(0.238241,-0.132745,0.537098,0.889399,-917.117,-1027.18)">
            <rect x="917" y="1312" width="22" height="1" style="fill:rgb(99,175,240);"/>
        </g>
        <g transform="matrix(0.772727,-5.56658e-17,-5.56658e-17,1,-697.572,-1285.04)">
            <path d="M939,1312.25C939,1312.11 938.855,1312 938.676,1312L917,1312L917,1312.75C917,1312.89 917.145,1313 917.324,1313L938.676,1313C938.855,1313 939,1312.89 939,1312.75L939,1312.25Z" style="fill:rgb(99,175,240);"/>
        </g>
    </g>
</svg>
