<?xml version="1.0" standalone="no"?>
<!DOCTYPE svg PUBLIC "-//W3C//DTD SVG 1.1//EN" "http://www.w3.org/Graphics/SVG/1.1/DTD/svg11.dtd">
<svg width="100%" height="100%" viewBox="0 0 35 35" version="1.1" xmlns="http://www.w3.org/2000/svg" xmlns:xlink="http://www.w3.org/1999/xlink" xml:space="preserve" style="fill-rule:evenodd;clip-rule:evenodd;stroke-linejoin:round;stroke-miterlimit:1.41421;">
    <g transform="matrix(1,0,0,1,-54,-5)">
        <g transform="matrix(0.972222,0,0,0.972222,-745.628,-1288.26)">
            <path d="M844.598,1355.41C844.691,1355.56 844.82,1355.62 844.984,1355.62C845.148,1355.62 845.277,1355.56 845.371,1355.41C845.652,1355.18 845.652,1354.92 845.371,1354.64L840.027,1349.3L840.027,1341.42C840.027,1341.05 839.84,1340.86 839.465,1340.86C839.09,1340.86 838.902,1341.05 838.902,1341.42L838.902,1349.51C838.902,1349.65 838.949,1349.79 839.043,1349.93L844.598,1355.41ZM825.719,1348.14C825.508,1348.35 825.508,1349.54 825.719,1349.75C825.93,1349.96 826.199,1350.07 826.527,1350.07C826.855,1350.07 827.125,1349.96 827.336,1349.75C827.547,1349.54 827.652,1349.27 827.652,1348.94C827.652,1348.62 827.547,1348.35 827.336,1348.14C827.125,1347.93 826.855,1347.82 826.527,1347.82C826.199,1347.82 825.93,1347.93 825.719,1348.14ZM852.402,1348.94C852.402,1349.27 852.508,1349.54 852.719,1349.75C852.93,1349.96 853.199,1350.07 853.527,1350.07C853.855,1350.07 854.125,1349.96 854.336,1349.75C854.547,1349.54 854.652,1349.27 854.652,1348.94C854.652,1348.62 854.547,1348.35 854.336,1348.14C854.125,1347.93 853.855,1347.82 853.527,1347.82C853.199,1347.82 852.93,1347.93 852.719,1348.14C852.508,1348.35 852.402,1348.62 852.402,1348.94ZM838.902,1335.44C838.902,1335.77 839.008,1336.04 839.219,1336.25C839.43,1336.46 839.699,1336.57 840.027,1336.57C840.355,1336.57 840.625,1336.46 840.836,1336.25C841.047,1336.04 841.152,1335.77 841.152,1335.44C841.152,1335.12 841.047,1334.85 840.836,1334.64C840.625,1334.43 840.355,1334.32 840.027,1334.32C839.699,1334.32 839.43,1334.43 839.219,1334.64C839.008,1334.85 838.902,1335.12 838.902,1335.44ZM838.902,1362.44C838.902,1362.77 839.008,1363.04 839.219,1363.25C839.43,1363.46 839.699,1363.57 840.027,1363.57C840.355,1363.57 840.625,1363.46 840.836,1363.25C841.047,1363.04 841.152,1362.77 841.152,1362.44C841.152,1362.12 841.047,1361.85 840.836,1361.64C840.625,1361.43 840.355,1361.32 840.027,1361.32C839.699,1361.32 839.43,1361.43 839.219,1361.64C839.008,1361.85 838.902,1362.12 838.902,1362.44ZM829.902,1339.94C829.902,1340.27 830.008,1340.54 830.219,1340.75C830.43,1340.96 830.699,1341.07 831.027,1341.07C831.355,1341.07 831.625,1340.96 831.836,1340.75C832.047,1340.54 832.152,1340.27 832.152,1339.94C832.152,1339.62 832.047,1339.35 831.836,1339.14C831.625,1338.93 831.355,1338.82 831.027,1338.82C830.699,1338.82 830.43,1338.93 830.219,1339.14C830.008,1339.35 829.902,1339.62 829.902,1339.94ZM847.902,1357.94C847.902,1358.27 848.008,1358.54 848.219,1358.75C848.43,1358.96 848.699,1359.07 849.027,1359.07C849.355,1359.07 849.625,1358.96 849.836,1358.75C850.047,1358.54 850.152,1358.27 850.152,1357.94C850.152,1357.62 850.047,1357.35 849.836,1357.14C849.625,1356.93 849.355,1356.82 849.027,1356.82C848.699,1356.82 848.43,1356.93 848.219,1357.14C848.008,1357.35 847.902,1357.62 847.902,1357.94ZM849.027,1339.94C849.027,1340.27 849.133,1340.54 849.344,1340.75C849.555,1340.96 849.824,1341.07 850.152,1341.07C850.48,1341.07 850.75,1340.96 850.961,1340.75C851.172,1340.54 851.277,1340.27 851.277,1339.94C851.277,1339.62 851.172,1339.35 850.961,1339.14C850.75,1338.93 850.48,1338.82 850.152,1338.82C849.824,1338.82 849.555,1338.93 849.344,1339.14C849.133,1339.35 849.027,1339.62 849.027,1339.94ZM829.902,1357.94C829.902,1358.27 830.008,1358.54 830.219,1358.75C830.43,1358.96 830.699,1359.07 831.027,1359.07C831.355,1359.07 831.625,1358.96 831.836,1358.75C832.047,1358.54 832.152,1358.27 832.152,1357.94C832.152,1357.62 832.047,1357.35 831.836,1357.14C831.625,1356.93 831.355,1356.82 831.027,1356.82C830.699,1356.82 830.43,1356.93 830.219,1357.14C830.008,1357.35 829.902,1357.62 829.902,1357.94Z" style="fill:rgb(14,188,234);fill-rule:nonzero;"/>
        </g>
        <g transform="matrix(1.38622,-1.22519e-17,-1.22519e-17,1.43625,-11.3425,-3.60109)">
            <path d="M59.761,30.358L59.598,30.357L59.436,30.354L59.274,30.349L59.112,30.342L58.951,30.333L58.791,30.322L58.631,30.309L58.471,30.295L58.313,30.278L58.154,30.26L57.997,30.239L57.84,30.217L57.684,30.193L57.528,30.167L57.373,30.139L57.218,30.11L57.065,30.079L56.912,30.045L56.759,30.011L56.608,29.974L56.457,29.935L56.307,29.895L56.158,29.853L56.009,29.809L55.861,29.764L55.714,29.717L55.568,29.668L55.423,29.618L55.278,29.566L55.134,29.512L54.991,29.457L54.849,29.4L54.708,29.341L54.568,29.281L54.429,29.219L54.29,29.155L54.153,29.09L54.016,29.024L53.881,28.956L53.746,28.886L53.612,28.815L53.48,28.742L53.348,28.668L53.217,28.593L53.088,28.516L52.959,28.437L52.831,28.357L52.705,28.276L52.58,28.193L52.455,28.108L52.332,28.023L52.21,27.936L52.089,27.847L51.969,27.757L51.851,27.666L51.733,27.574L51.617,27.48L51.502,27.385L51.388,27.288L51.275,27.191L51.163,27.092L51.053,26.992L50.944,26.89L50.836,26.787L50.73,26.683L50.625,26.578L50.521,26.472L50.418,26.364L50.317,26.255L50.217,26.145L50.119,26.034L50.021,25.922L49.926,25.808L49.831,25.694L49.738,25.578L49.646,25.461L49.556,25.344L49.467,25.225L49.38,25.105L49.294,24.984L49.21,24.862L49.127,24.738L49.046,24.614L48.966,24.489L48.887,24.363L48.811,24.236L48.735,24.108L48.662,23.979L48.59,23.849L48.519,23.718L48.45,23.586L48.383,23.454L48.317,23.32L48.253,23.186L48.191,23.05L48.13,22.914L48.071,22.777L48.013,22.639L47.958,22.5L47.904,22.361L47.851,22.22L47.801,22.079L47.752,21.937L47.705,21.795L47.66,21.651L47.616,21.507L47.575,21.362L47.535,21.217L47.497,21.07L47.461,20.923L47.426,20.776L47.394,20.627L47.363,20.478L47.334,20.329L47.308,20.179L47.283,20.028L47.26,19.876L47.239,19.724L47.219,19.571L47.202,19.418L47.187,19.264L47.174,19.11L47.163,18.955L47.154,18.8L47.146,18.644L47.141,18.487L47.138,18.331L47.137,18.173L47.138,18.016L47.141,17.859L47.146,17.702L47.154,17.547L47.163,17.391L47.174,17.236L47.187,17.082L47.202,16.928L47.219,16.775L47.239,16.622L47.26,16.47L47.283,16.319L47.308,16.168L47.334,16.017L47.363,15.868L47.394,15.719L47.426,15.57L47.461,15.423L47.497,15.276L47.535,15.13L47.575,14.984L47.616,14.839L47.66,14.695L47.705,14.551L47.752,14.409L47.801,14.267L47.851,14.126L47.904,13.985L47.958,13.846L48.013,13.707L48.071,13.569L48.13,13.432L48.191,13.296L48.253,13.161L48.317,13.026L48.383,12.893L48.45,12.76L48.519,12.628L48.59,12.497L48.662,12.367L48.735,12.238L48.811,12.11L48.887,11.983L48.966,11.857L49.046,11.732L49.127,11.608L49.21,11.485L49.294,11.363L49.38,11.242L49.467,11.122L49.556,11.003L49.646,10.885L49.738,10.768L49.831,10.652L49.926,10.538L50.021,10.425L50.119,10.312L50.217,10.201L50.317,10.091L50.418,9.982L50.521,9.875L50.625,9.768L50.73,9.663L50.836,9.559L50.944,9.456L51.053,9.355L51.163,9.254L51.275,9.155L51.388,9.058L51.502,8.961L51.617,8.866L51.733,8.772L51.851,8.68L51.969,8.589L52.089,8.499L52.21,8.411L52.332,8.323L52.455,8.238L52.58,8.154L52.705,8.071L52.831,7.989L52.959,7.909L53.088,7.831L53.217,7.754L53.348,7.678L53.48,7.604L53.612,7.531L53.746,7.46L53.881,7.39L54.016,7.322L54.153,7.256L54.29,7.191L54.429,7.127L54.568,7.066L54.708,7.005L54.849,6.947L54.991,6.89L55.134,6.834L55.278,6.781L55.423,6.728L55.568,6.678L55.714,6.629L55.861,6.582L56.009,6.537L56.158,6.493L56.307,6.451L56.457,6.411L56.608,6.372L56.759,6.336L56.912,6.301L57.065,6.268L57.218,6.236L57.373,6.207L57.528,6.179L57.684,6.153L57.84,6.129L57.997,6.107L58.154,6.087L58.313,6.068L58.471,6.052L58.631,6.037L58.791,6.024L58.951,6.013L59.112,6.004L59.274,5.998L59.436,5.993L59.598,5.99L59.761,5.989L59.924,5.99L60.087,5.993L60.249,5.998L60.411,6.004L60.572,6.013L60.732,6.024L60.892,6.037L61.051,6.052L61.21,6.068L61.368,6.087L61.526,6.107L61.683,6.129L61.839,6.153L61.995,6.179L62.15,6.207L62.304,6.236L62.458,6.268L62.611,6.301L62.763,6.336L62.915,6.372L63.066,6.411L63.216,6.451L63.365,6.493L63.514,6.537L63.661,6.582L63.808,6.629L63.955,6.678L64.1,6.728L64.245,6.781L64.388,6.834L64.531,6.89L64.673,6.947L64.814,7.005L64.955,7.066L65.094,7.127L65.232,7.191L65.37,7.256L65.506,7.322L65.642,7.39L65.777,7.46L65.91,7.531L66.043,7.604L66.175,7.678L66.305,7.754L66.435,7.831L66.564,7.909L66.691,7.989L66.818,8.071L66.943,8.154L67.067,8.238L67.19,8.323L67.313,8.411L67.434,8.499L67.553,8.589L67.672,8.68L67.79,8.772L67.906,8.866L68.021,8.961L68.135,9.058L68.248,9.155L68.359,9.254L68.469,9.355L68.578,9.456L68.686,9.559L68.793,9.663L68.898,9.768L69.002,9.875L69.104,9.982L69.206,10.091L69.306,10.201L69.404,10.312L69.501,10.425L69.597,10.538L69.692,10.652L69.785,10.768L69.876,10.885L69.966,11.003L70.055,11.122L70.142,11.242L70.228,11.363L70.313,11.485L70.396,11.608L70.477,11.732L70.557,11.857L70.635,11.983L70.712,12.11L70.787,12.238L70.861,12.367L70.933,12.497L71.004,12.628L71.073,12.76L71.14,12.893L71.206,13.026L71.27,13.161L71.332,13.296L71.393,13.432L71.452,13.569L71.509,13.707L71.565,13.846L71.619,13.985L71.671,14.126L71.722,14.267L71.771,14.409L71.818,14.551L71.863,14.695L71.906,14.839L71.948,14.984L71.988,15.13L72.026,15.276L72.062,15.423L72.096,15.57L72.129,15.719L72.159,15.868L72.188,16.017L72.215,16.168L72.24,16.319L72.263,16.47L72.284,16.622L72.303,16.775L72.32,16.928L72.335,17.082L72.349,17.236L72.36,17.391L72.369,17.547L72.376,17.702L72.381,17.859L72.384,18.016L72.386,18.173L72.384,18.331L72.381,18.487L72.376,18.644L72.369,18.8L72.36,18.955L72.349,19.11L72.335,19.264L72.32,19.418L72.303,19.571L72.284,19.724L72.263,19.876L72.24,20.028L72.215,20.179L72.188,20.329L72.159,20.478L72.129,20.627L72.096,20.776L72.062,20.923L72.026,21.07L71.988,21.217L71.948,21.362L71.906,21.507L71.863,21.651L71.818,21.795L71.771,21.937L71.722,22.079L71.671,22.22L71.619,22.361L71.565,22.5L71.509,22.639L71.452,22.777L71.393,22.914L71.332,23.05L71.27,23.186L71.206,23.32L71.14,23.454L71.073,23.586L71.004,23.718L70.933,23.849L70.861,23.979L70.787,24.108L70.712,24.236L70.635,24.363L70.557,24.489L70.477,24.614L70.396,24.738L70.313,24.862L70.228,24.984L70.142,25.105L70.055,25.225L69.966,25.344L69.876,25.461L69.785,25.578L69.692,25.694L69.597,25.808L69.501,25.922L69.404,26.034L69.306,26.145L69.206,26.255L69.104,26.364L69.002,26.472L68.898,26.578L68.793,26.683L68.686,26.787L68.578,26.89L68.469,26.992L68.359,27.092L68.248,27.191L68.135,27.288L68.021,27.385L67.906,27.48L67.79,27.574L67.672,27.666L67.553,27.757L67.434,27.847L67.313,27.936L67.19,28.023L67.067,28.108L66.943,28.193L66.818,28.276L66.691,28.357L66.564,28.437L66.435,28.516L66.305,28.593L66.175,28.668L66.043,28.742L65.91,28.815L65.777,28.886L65.642,28.956L65.506,29.024L65.37,29.09L65.232,29.155L65.094,29.219L64.955,29.281L64.814,29.341L64.673,29.4L64.531,29.457L64.388,29.512L64.245,29.566L64.1,29.618L63.955,29.668L63.808,29.717L63.661,29.764L63.514,29.809L63.365,29.853L63.216,29.895L63.066,29.935L62.915,29.974L62.763,30.011L62.611,30.045L62.458,30.079L62.304,30.11L62.15,30.139L61.995,30.167L61.839,30.193L61.683,30.217L61.526,30.239L61.368,30.26L61.21,30.278L61.051,30.295L60.892,30.309L60.732,30.322L60.572,30.333L60.411,30.342L60.249,30.349L60.087,30.354L59.924,30.357L59.761,30.358ZM59.761,29.661L59.915,29.66L60.069,29.658L60.222,29.653L60.374,29.646L60.526,29.638L60.677,29.628L60.828,29.616L60.978,29.602L61.128,29.586L61.277,29.569L61.426,29.55L61.574,29.529L61.721,29.506L61.868,29.482L62.014,29.456L62.159,29.428L62.304,29.398L62.448,29.367L62.592,29.334L62.735,29.3L62.877,29.263L63.018,29.225L63.159,29.186L63.299,29.145L63.438,29.102L63.577,29.058L63.715,29.012L63.852,28.964L63.988,28.915L64.124,28.864L64.258,28.812L64.392,28.758L64.525,28.703L64.657,28.646L64.789,28.588L64.919,28.528L65.049,28.467L65.177,28.404L65.305,28.34L65.432,28.274L65.558,28.207L65.683,28.139L65.807,28.069L65.931,27.998L66.053,27.925L66.174,27.851L66.294,27.775L66.414,27.699L66.532,27.621L66.649,27.541L66.765,27.46L66.88,27.378L66.995,27.295L67.108,27.21L67.219,27.124L67.33,27.037L67.44,26.948L67.549,26.859L67.656,26.768L67.762,26.676L67.868,26.582L67.972,26.488L68.074,26.392L68.176,26.295L68.277,26.197L68.376,26.098L68.474,25.997L68.571,25.896L68.666,25.793L68.76,25.689L68.853,25.584L68.945,25.479L69.035,25.372L69.124,25.264L69.212,25.154L69.299,25.044L69.384,24.933L69.467,24.821L69.55,24.708L69.631,24.594L69.71,24.479L69.788,24.363L69.865,24.246L69.94,24.128L70.014,24.009L70.087,23.889L70.158,23.768L70.227,23.647L70.295,23.524L70.362,23.401L70.427,23.276L70.49,23.151L70.552,23.025L70.612,22.899L70.671,22.771L70.728,22.643L70.784,22.513L70.838,22.383L70.891,22.253L70.942,22.121L70.991,21.989L71.038,21.856L71.084,21.722L71.129,21.588L71.171,21.453L71.212,21.317L71.252,21.18L71.289,21.043L71.325,20.905L71.359,20.767L71.392,20.628L71.422,20.488L71.451,20.347L71.478,20.206L71.503,20.065L71.527,19.922L71.549,19.78L71.568,19.636L71.586,19.492L71.603,19.348L71.617,19.203L71.629,19.057L71.64,18.911L71.649,18.764L71.655,18.617L71.66,18.47L71.663,18.322L71.664,18.173L71.663,18.025L71.66,17.877L71.655,17.729L71.649,17.582L71.64,17.435L71.629,17.289L71.617,17.144L71.603,16.999L71.586,16.854L71.568,16.71L71.549,16.567L71.527,16.424L71.503,16.282L71.478,16.14L71.451,15.999L71.422,15.859L71.392,15.719L71.359,15.58L71.325,15.441L71.289,15.303L71.252,15.166L71.212,15.029L71.171,14.894L71.129,14.758L71.084,14.624L71.038,14.49L70.991,14.357L70.942,14.225L70.891,14.094L70.838,13.963L70.784,13.833L70.728,13.704L70.671,13.575L70.612,13.448L70.552,13.321L70.49,13.195L70.427,13.07L70.362,12.946L70.295,12.822L70.227,12.7L70.158,12.578L70.087,12.457L70.014,12.338L69.94,12.219L69.865,12.101L69.788,11.984L69.71,11.868L69.631,11.752L69.55,11.638L69.467,11.525L69.384,11.413L69.299,11.302L69.212,11.192L69.124,11.083L69.035,10.975L68.945,10.868L68.853,10.762L68.76,10.657L68.666,10.553L68.571,10.451L68.474,10.349L68.376,10.249L68.277,10.149L68.176,10.051L68.074,9.954L67.972,9.859L67.868,9.764L67.762,9.671L67.656,9.579L67.549,9.488L67.44,9.398L67.33,9.309L67.219,9.222L67.108,9.136L66.995,9.051L66.88,8.968L66.765,8.886L66.649,8.805L66.532,8.726L66.414,8.648L66.294,8.571L66.174,8.495L66.053,8.421L65.931,8.349L65.807,8.277L65.683,8.207L65.558,8.139L65.432,8.072L65.305,8.006L65.177,7.942L65.049,7.879L64.919,7.818L64.789,7.758L64.657,7.7L64.525,7.643L64.392,7.588L64.258,7.534L64.124,7.482L63.988,7.431L63.852,7.382L63.715,7.335L63.577,7.289L63.438,7.244L63.299,7.202L63.159,7.16L63.018,7.121L62.877,7.083L62.735,7.047L62.592,7.012L62.448,6.979L62.304,6.948L62.159,6.918L62.014,6.891L61.868,6.864L61.721,6.84L61.574,6.817L61.426,6.796L61.277,6.777L61.128,6.76L60.978,6.744L60.828,6.73L60.677,6.718L60.526,6.708L60.374,6.7L60.222,6.693L60.069,6.689L59.915,6.686L59.761,6.685L59.607,6.686L59.454,6.689L59.301,6.693L59.149,6.7L58.997,6.708L58.845,6.718L58.695,6.73L58.544,6.744L58.395,6.76L58.245,6.777L58.097,6.796L57.949,6.817L57.802,6.84L57.655,6.864L57.509,6.891L57.363,6.918L57.218,6.948L57.074,6.979L56.931,7.012L56.788,7.047L56.646,7.083L56.504,7.121L56.363,7.16L56.223,7.202L56.084,7.244L55.946,7.289L55.808,7.335L55.671,7.382L55.534,7.431L55.399,7.482L55.264,7.534L55.131,7.588L54.998,7.643L54.865,7.7L54.734,7.758L54.604,7.818L54.474,7.879L54.345,7.942L54.217,8.006L54.09,8.072L53.964,8.139L53.839,8.207L53.715,8.277L53.592,8.349L53.47,8.421L53.348,8.495L53.228,8.571L53.109,8.648L52.991,8.726L52.873,8.805L52.757,8.886L52.642,8.968L52.528,9.051L52.415,9.136L52.303,9.222L52.192,9.309L52.083,9.398L51.974,9.488L51.866,9.579L51.76,9.671L51.655,9.764L51.551,9.859L51.448,9.954L51.346,10.051L51.246,10.149L51.147,10.249L51.049,10.349L50.952,10.451L50.857,10.553L50.762,10.657L50.669,10.762L50.578,10.868L50.487,10.975L50.398,11.083L50.311,11.192L50.224,11.302L50.139,11.413L50.055,11.525L49.973,11.638L49.892,11.752L49.812,11.868L49.734,11.984L49.658,12.101L49.582,12.219L49.508,12.338L49.436,12.457L49.365,12.578L49.296,12.7L49.228,12.822L49.161,12.946L49.096,13.07L49.033,13.195L48.971,13.321L48.91,13.448L48.851,13.575L48.794,13.704L48.738,13.833L48.684,13.963L48.632,14.094L48.581,14.225L48.532,14.357L48.484,14.49L48.438,14.624L48.394,14.758L48.351,14.894L48.31,15.029L48.271,15.166L48.233,15.303L48.198,15.441L48.163,15.58L48.131,15.719L48.1,15.859L48.072,15.999L48.045,16.14L48.019,16.282L47.996,16.424L47.974,16.567L47.954,16.71L47.936,16.854L47.92,16.999L47.906,17.144L47.893,17.289L47.883,17.435L47.874,17.582L47.867,17.729L47.862,17.877L47.859,18.025L47.858,18.173L47.859,18.322L47.862,18.47L47.867,18.617L47.874,18.764L47.883,18.911L47.893,19.057L47.906,19.203L47.92,19.348L47.936,19.492L47.954,19.636L47.974,19.78L47.996,19.922L48.019,20.065L48.045,20.206L48.072,20.347L48.1,20.488L48.131,20.628L48.163,20.767L48.233,21.043L48.271,21.18L48.31,21.317L48.351,21.453L48.394,21.588L48.438,21.722L48.484,21.856L48.532,21.989L48.581,22.121L48.632,22.253L48.684,22.383L48.738,22.513L48.794,22.643L48.851,22.771L48.91,22.899L48.971,23.025L49.033,23.151L49.096,23.276L49.161,23.401L49.228,23.524L49.296,23.647L49.365,23.768L49.436,23.889L49.508,24.009L49.582,24.128L49.658,24.246L49.734,24.363L49.812,24.479L49.892,24.594L49.973,24.708L50.055,24.821L50.139,24.933L50.224,25.044L50.398,25.264L50.487,25.372L50.578,25.479L50.669,25.584L50.762,25.689L50.857,25.793L50.952,25.896L51.049,25.997L51.147,26.098L51.246,26.197L51.346,26.295L51.448,26.392L51.551,26.488L51.655,26.582L51.76,26.676L51.866,26.768L51.974,26.859L52.192,27.037L52.303,27.124L52.415,27.21L52.528,27.295L52.642,27.378L52.757,27.46L52.873,27.541L52.991,27.621L53.109,27.699L53.228,27.775L53.348,27.851L53.47,27.925L53.592,27.998L53.715,28.069L53.839,28.139L53.964,28.207L54.09,28.274L54.217,28.34L54.345,28.404L54.474,28.467L54.604,28.528L54.734,28.588L54.865,28.646L54.998,28.703L55.131,28.758L55.264,28.812L55.399,28.864L55.535,28.915L55.671,28.964L55.808,29.012L55.946,29.058L56.084,29.102L56.223,29.145L56.363,29.186L56.504,29.225L56.646,29.263L56.788,29.3L56.931,29.334L57.074,29.367L57.218,29.398L57.363,29.428L57.509,29.456L57.655,29.482L57.802,29.506L57.949,29.529L58.097,29.55L58.245,29.569L58.395,29.586L58.544,29.602L58.695,29.616L58.845,29.628L58.997,29.638L59.149,29.646L59.301,29.653L59.454,29.658L59.607,29.66L59.761,29.661Z" style="fill:rgb(14,188,234);"/>
        </g>
    </g>
</svg>
